<mxfile host="65bd71144e">
    <diagram id="8yK9R3zvT8sRWchGTIiJ" name="generic-tentacle">
        <mxGraphModel dx="673" dy="593" grid="1" gridSize="10" guides="1" tooltips="1" connect="1" arrows="1" fold="1" page="1" pageScale="1" pageWidth="827" pageHeight="1169" math="0" shadow="0">
            <root>
                <mxCell id="0"/>
                <mxCell id="1" parent="0"/>
                <mxCell id="2" value="Generic Tentacle" style="rounded=0;whiteSpace=wrap;html=1;verticalAlign=top;strokeWidth=2;fillStyle=solid;fillColor=#99FFFF;strokeColor=#4040FF;fontColor=#000000;fontStyle=1" parent="1" vertex="1">
                    <mxGeometry x="240" y="90" width="129" height="130" as="geometry"/>
                </mxCell>
                <mxCell id="IrSCRaVFjGxWifBhCEHX-19" value="" style="rounded=0;whiteSpace=wrap;html=1;verticalAlign=top;strokeWidth=2;fillStyle=solid;fillColor=#d5e8d4;strokeColor=#008800;fontStyle=1" parent="1" vertex="1">
                    <mxGeometry x="240" y="222" width="129" height="210" as="geometry"/>
                </mxCell>
                <mxCell id="IrSCRaVFjGxWifBhCEHX-12" value="Inkbus" style="rounded=0;whiteSpace=wrap;html=1;fillColor=#ffe6cc;strokeColor=none;horizontal=1;verticalAlign=top;fontStyle=0;fontColor=#D08000;" parent="1" vertex="1">
                    <mxGeometry x="333" y="130" width="70" height="180" as="geometry"/>
                </mxCell>
                <mxCell id="4" value="I2C" style="endArrow=none;html=1;strokeWidth=1;entryX=0.996;entryY=0.195;entryDx=0;entryDy=0;entryPerimeter=0;orthogonal=1;labelBackgroundColor=none;fontColor=#000000;strokeColor=#000000;" parent="1" edge="1">
                    <mxGeometry x="-0.0103" y="-7" width="100" relative="1" as="geometry">
                        <mxPoint x="344.56" y="160.55" as="sourcePoint"/>
                        <mxPoint x="401.00000000000006" y="160" as="targetPoint"/>
                        <mxPoint as="offset"/>
                    </mxGeometry>
                </mxCell>
                <mxCell id="5" value="&#10;&#10;USB" style="shape=mxgraph.electrical.electro-mechanical.singleSwitch;aspect=fixed;elSwitchState=off;labelBackgroundColor=none;fontColor=#000000;strokeColor=#000000;" parent="1" vertex="1">
                    <mxGeometry x="342" y="180" width="59" height="15.73" as="geometry"/>
                </mxCell>
                <mxCell id="6" value="&#10;&#10;USB, 5V" style="shape=mxgraph.electrical.electro-mechanical.singleSwitch;aspect=fixed;elSwitchState=off;labelBackgroundColor=none;fontColor=#000000;strokeColor=#000000;" parent="1" vertex="1">
                    <mxGeometry x="342" y="232" width="59" height="15.73" as="geometry"/>
                </mxCell>
                <mxCell id="7" value="&#10;&#10;IO" style="shape=mxgraph.electrical.electro-mechanical.singleSwitch;aspect=fixed;elSwitchState=off;labelBackgroundColor=none;fontColor=#000000;strokeColor=#000000;" parent="1" vertex="1">
                    <mxGeometry x="342" y="272" width="59" height="15.73" as="geometry"/>
                </mxCell>
                <mxCell id="IrSCRaVFjGxWifBhCEHX-8" value="&#10;&#10;Boot TP" style="shape=mxgraph.electrical.electro-mechanical.singleSwitch;aspect=fixed;elSwitchState=off;labelBackgroundColor=none;fontColor=#000000;strokeColor=#000000;" parent="1" vertex="1">
                    <mxGeometry x="257.9" y="190" width="59" height="15.73" as="geometry"/>
                </mxCell>
                <mxCell id="IrSCRaVFjGxWifBhCEHX-9" value="" style="endArrow=none;dashed=1;html=1;dashPattern=1 3;strokeWidth=2;labelBackgroundColor=none;strokeColor=#FF0000;opacity=0;" parent="1" edge="1">
                    <mxGeometry width="50" height="50" relative="1" as="geometry">
                        <mxPoint x="280" y="230" as="sourcePoint"/>
                        <mxPoint x="330" y="180" as="targetPoint"/>
                    </mxGeometry>
                </mxCell>
                <mxCell id="IrSCRaVFjGxWifBhCEHX-11" value="" style="pointerEvents=1;shadow=0;dashed=0;html=1;strokeColor=none;fillColor=#4495D1;labelPosition=center;verticalLabelPosition=bottom;verticalAlign=top;align=center;outlineConnect=0;shape=mxgraph.veeam.cpu;" parent="1" vertex="1">
                    <mxGeometry x="272.1" y="130" width="44.8" height="44.8" as="geometry"/>
                </mxCell>
                <mxCell id="IrSCRaVFjGxWifBhCEHX-17" value="Infrastructure" style="text;html=1;strokeColor=none;fillColor=none;align=center;verticalAlign=middle;whiteSpace=wrap;rounded=0;horizontal=0;fontColor=#4040FF;" parent="1" vertex="1">
                    <mxGeometry x="240" y="115.73" width="20" height="80" as="geometry"/>
                </mxCell>
                <mxCell id="IrSCRaVFjGxWifBhCEHX-18" value="TP (test participant)" style="text;html=1;strokeColor=none;fillColor=none;align=center;verticalAlign=middle;whiteSpace=wrap;rounded=0;horizontal=0;fontColor=#008800;" parent="1" vertex="1">
                    <mxGeometry x="241" y="223.73" width="20" height="112.27" as="geometry"/>
                </mxCell>
                <mxCell id="IrSCRaVFjGxWifBhCEHX-23" value="" style="endArrow=none;rounded=0;labelBackgroundColor=none;strokeColor=#4040FF;strokeWidth=2;fontColor=#FF8000;entryX=1;entryY=0.5;entryDx=0;entryDy=0;exitX=0;exitY=0.5;exitDx=0;exitDy=0;" parent="1" edge="1">
                    <mxGeometry width="50" height="50" relative="1" as="geometry">
                        <mxPoint x="333" y="220" as="sourcePoint"/>
                        <mxPoint x="403" y="220" as="targetPoint"/>
                    </mxGeometry>
                </mxCell>
                <mxCell id="IrSCRaVFjGxWifBhCEHX-24" value="" style="endArrow=none;rounded=0;labelBackgroundColor=none;strokeColor=#008800;strokeWidth=2;fontColor=#FF8000;entryX=1;entryY=0.5;entryDx=0;entryDy=0;exitX=0;exitY=0.5;exitDx=0;exitDy=0;" parent="1" edge="1">
                    <mxGeometry width="50" height="50" relative="1" as="geometry">
                        <mxPoint x="333" y="222" as="sourcePoint"/>
                        <mxPoint x="403" y="222" as="targetPoint"/>
                    </mxGeometry>
                </mxCell>
            </root>
        </mxGraphModel>
    </diagram>
    <diagram id="x0EXqisZxIAAFJiS7Ch1" name="Example testsetup">
        <mxGraphModel dx="1500" dy="593" grid="1" gridSize="10" guides="1" tooltips="1" connect="1" arrows="1" fold="1" page="1" pageScale="1" pageWidth="827" pageHeight="1169" math="0" shadow="0">
            <root>
                <mxCell id="0"/>
                <mxCell id="1" parent="0"/>
                <mxCell id="QVaBI0Wi_gaqylhbhUQJ-1" value="Infra Tentacle" style="shape=image;imageAspect=0;aspect=fixed;verticalLabelPosition=bottom;verticalAlign=top;strokeColor=#008800;fontColor=#000000;fillColor=#0000FF;image=data:image/svg+xml,PHN2ZyB4bWxuczp4bGluaz0iaHR0cDovL3d3dy53My5vcmcvMTk5OS94bGluayIgeG1sbnM9Imh0dHA6Ly93d3cudzMub3JnLzIwMDAvc3ZnIiBjb250ZW50PSImbHQ7bXhmaWxlJmd0OyZsdDtkaWFncmFtIGlkPSZxdW90Ozh5SzlSM3p2VDhzUldjaEdUSWlKJnF1b3Q7IG5hbWU9JnF1b3Q7Z2VuZXJpYy10ZW50YWNsZSZxdW90OyZndDs3WmxiYzZNMkZNYy9qV2ZhaHpEaVpwdkh0Uk5uTTlOT1BYVjNOMzFVUUlBYVFCNGgzL2JUVndKeEVaSVRaME15M1U3OGtFRi9kRUhuZHlTZG8wemNaWDY4cFhDYi9rNGlsRTBjRUIwbjd2WEVjWHpnOGI5Q09OV0NFOHhxSWFFNHFpVzdFemI0TzVJaWtPb09SNmhVS2pKQ01vYTNxaGlTb2tBaFV6UklLVG1vMVdLU3FhTnVZWUkwWVJQQ1RGZS80WWlsdFRwM1pwMytHZUVrYlVhMnAwSDlKb2ROWlRtVE1vVVJPZlFrOTJiaUxpa2hySDdLajB1VUNkczFkcW5icmM2OGJUK01vb0pkMHNDcEcreGh0cE56dTBVRm9qams0bCs4RHhqeU9kZGZ5azdOOUNuWkZSRVNQWUNKdXppa21LSE5Gb2JpN1lIejVscks4b3lYYlA2NFI1UmhicnBQR1U0S3JqRWlLcFNNa3NmV2VIemFpeGhuMlVhT1VaSk1mR0NsTFVsR2FEV3VHd1FyL210Yjk5NTR3QVBWbTVnVXJLZUQ2aWYxcG5lRGthUWt2aFVkZTVJMDJpMGlPV0wweEt2SXQ0NG5BVW9QRG1UeDBMbUQ3VWpvYWQ4VlhGa1JTaGRNMnE0N1N2eEJnakpEdTZPYjVaL3c2K3FmMitNM0hDL1M1YzNuK3lzNzBGRCtaOEJGUHBwSG5na2NBUFA1T1VBYURRT3ppd0cxcnY0Y29YYVRHWitRdnRqdWlzZUhYZms2VGdOYnh6R2FocUZtNjRJVVNMUWpGSC9ucG9aUFUrN1RBUHF5dWdiemVsbU5BTXAxWFFWVXUwSjZvR2JBc0pMbUkzRHlkQ0xPVXNPQml1aVRPRFY2WnV6TXJ5NElvZkNKMDlPOXNKd1ZCTk5HK0xzUzdNQnZoT3VqTkc1ZE92VkxhNzRGODhrZ0trVkNXVW9TVXJUWU12aUFzZ1VNSDVQS1Z3YVV6KzJDaHVVSCtpQU5XeUtLbEtQd0xNWXJZQUVicUNpdlp2cVNBNUlhUlJsa2VLOGVxQ2FVY3NRMXdmekxPcS94UE11ZnFvNHpCWmJ2cXgyVlpFZERKTnYyajhGQmR4NndMZEQvYVYyci9USklFOFNlNkxlcFNPSzRSRXFkeWlWYisxM2twYjVoWitjZjZObzF1ZmJ4eTJhaCtTNFBNTGJpTVQ4bUloU3pVTVlESWlwV3ZId2tWemtLVTFoVVVvbUxKRU9iQTJZaEI3YUE1YllPbjJKOEZOdlJBbVgxdXcyRFRQVEtwL2Vlem5qNStleDZqa3B3cnU4cXZ1bDg5cTJaKy9wOVpmb1NZcnczNEgvOUlHY201N2o2d2YyRzVHWVhrcnY3NHdQWUdXQ3pkd1ZtRExYbUYxSmNpRVNMWnpyci94SE0xNFhOL3N3SzFKM1RrTnE4Tjg0TFVoczlSb3RnbVZZeHRLMEdiRUpmUThhRHE2TE9OWGpVWXNwcm5xYWpVVml0SkFYQ0kzWE1tbkRPR0VWZFJLUnZiMFA4NjQ4VFNEbnpRWjQwVEZBdkRhRmNWKzFJaTgvUHhFdy9FQStac3l2N2VTZlppc0VSdmRsejI1ZE4vTjdjd0lDK3p3QlRrRDljb0dyaTVYbUIzOFhtYTFKaWhvbHdzUkFWVlNUZjVscS9EU284RU1aSWZqWVpnN0xVOWtOMkxNTUYvNXptZGd2VTgxQTJyRDFDTUxmQzdXNmtqV0htV0xZSzJKQ284YWg4cnJ0cXA0NmZVK3ZuOVYwUlU4aUI3VUsyby9ybEZUY0JleUZjS1drY2hyaHlIRVZpR0dQR3J1YjBTaDV1eUxEYkM2MHgwQTJ1UXV6ZVZ0MWo1eGcybVRGeWJETTMvWVFXaHpENGhhR1MxYlBqcHNWYldMQmZmMUtFN2RYV0tBalZ0Y2UzMjBzUjJyWmpOVkh0NkJnZDkwZE9adFdPTHp4bjI1Vmh1SWxVQWF4VzhwYXF2WkJwYjJmcXk1aG5yMktPbU4zM25udXRlS2xySkFvL3kzay92RzVyZmVibFZ5YlBkUFRHNTczaDd1NnRYYTlkMFIrdU40N3JPV081bmpPUzYvRmk5NyszdW5yM0QwejM1bDg9Jmx0Oy9kaWFncmFtJmd0OyZsdDtkaWFncmFtIGlkPSZxdW90O3gwRVhxaXNaeElBQUZKaVM3Q2gxJnF1b3Q7IG5hbWU9JnF1b3Q7cG93ZXIgYW5kIHVzYiZxdW90OyZndDs3VnhaZDV2SUV2NDFlWnc1ckk3MUtJbmRBbGtzamVpWE9VQXpBdEVza1pBRS9QcGJhTEZsTzVuTWt0eTU1MXdtazJOMzBWMWRYVjlWZGVrN0NwLzRlZEdxdTdCT3pZb2s5QlBIa1BZVEwzM2lPUGJoNFRQOEdDVGRSU0pNaEl0Z3M4dklkZEtyd01uNjVDcGtydEpEUnBMOW00bE5WZEVtcTk4SzQ2b3NrN2g1SXd0M3UrcjBkdHJ2RlgyN2F4MXVrZzhDSnc3cFI2bWZrU2E5U0IrNXo2OXlMY2syNlcxbjltRnllVktFdDhuWGsrelRrRlNuT3hFdmYrTG51NnBxTHI4VjdUeWhnL051ZnJtc1U3N3g5TVd3WFZJMmYyWkJtZlJQQ3ovR3A0ZEhOK2gvbHpiT3dmM2xxdVVZMHNQMXdIcjUreTRFa1F0cXd4amNjREcrNlc0ZWdYUFV3NjlaY1hiZDdQeHp1cTh2M21kQUV0NEd2MmR0QXJ2UGpzbXV5Y0NuaXpCSzZITzF6NXFzS3VGNVZEVk5WZHhObU5Kc016eG9xdnFtR1VZa2JNSlAvUFF5NUpUOWNmT0ptN1VGSEc3K3JGa2M3bVpDNUxlSHVLK0ZTS1dIc0dleVVMT1pXS3FPQzU3d3BCTjVzeE9QY1JFZlRUY1hsODdrTXEvVE40bks3cVBTbk9oRnloQnQrckRvSnJBaVBwRGVQRVM4VVM1Ni9XUkswMlBNNDFMUFp0dUlFeG5zaTh5em94ZVJ0dm9jcmRNaTlGdHFGSVJaZG5oUHBDWVBmYVdNQzZYUlZaby9PN2dsL29SWjlxbm85TlF4K1pwRFV0cDdsR3hEbVhpT1Q1K01VbUVqZnZWWlY4VTA4cjNKYll3NWRNQnJvdzQ2OXJ4bjRGdDdmTlBYNFpKSWU5NHZqQ0xZb3A0d3lNTFpSQXNsTzFzaG1RdlptUnlVc3k4TEZsZUlvOGdxaklCSVU4Yno2blZJOVpOZnprUkhpam1UczdTbGxENUhrdUU1dWNDWjN1VEp6c1U5M3VvOTNvTHUzdFlkemQ2amRSMmFCV1VYVFBPUTVGUzF1RW00bEN3OUxvU09jUFVjZTZnZ3ZjWEhPZklpM3JJZExsMDdXL1JFV1BJbFpOb0ZwbFR4VmR4R0pWcDd6cjUxWFVWMVN2cmdxM0JXRCsxQ21TNWRadUxFQ25GWFc2c0lFRDY0eW9hekpIdnRlc2JLNCtxVjAzdTdxTGYyWkkwZTBEcnZWNjdNeGZObVpsTVNrSHlDUTJSbk1iTHFCVXNjaTJ1NjJHOVlwS1dXazZkbVdEVFlwQmFLQ3NURWEzdTM4Z1RlMFhSbTZUVU1XVmVuUko0MGljeVdXTFlQcnF6VUZtTzRUNnpIUC9WV0NMcWtGYUpWNURWZndBZXlYNGhmSXQ5bzhUYm9WbHRhSkw3ZU8ydmloeVZaQlhtK2kyUWsyQnBxWGJiV2tEUXJneTExSERZTkhNMmFZM1Vqckh3RitVWEtXbm5UbTNKVHhwcXk5aW5TWXE0OVdDb3VMZFhRZlNVVy9DMUtvNjJGUW43V3V5WEVzMHkyc2QrbXBBUjloY0hacVBiRG5tcVJaaGNScWxvL3AwZVA4emlUcjdpSXIzWnVRVzJUeG1EanByWFgxc0h1OGN6MDJUa3FHaHF3ZElmejFjbjI5aWVQTlhwdm5SOVhhM0lLR1lzbk1qNWFhNElXUFdZYzF1c3NsZzduM0dISWtFUTFuczB0bGhERHRMWmtNZ0duV0tFYmRLSEhuQncvRnNJMThpeVhsa2hCeDFYZUNvNnJpd2paczZqSFhGaXNCTHNrTzQremVWZVp0aEdYdWc1VFUrTEZUTnlucmVWYUIwK2gxUFhJZ2JCb3NlS3RoVU1SNjFOTHNiY2tNOWY1RHJPNmdGUmpGUldUblZsZ1BaYmIzT1Rvbm5pTTZHU1RKOHpMYkFBeDRrbHBsNVJFTlh0UzJxNWR4RnE2anIzSDFsV0RrNTJuVXV3YW1LakdqRWhJQ3Z6cTlNUmFodThTYmJrRzMzcXBoNVNxOTdWWkUvdjEzbGRaSDdQQnlTd0QzdVp0ZWFraUg4NVpJRGw5TXZuWkhrdkU5NUhSV3V1Wmh5aWFQM0Uxalp3OUUybVV0YmJXUFBMdFZlUWlaOVdudmVubGJiUld3SlpBOEF0RVNUK3ppS2JvbGlmNmNCN1BacXcrWEVPTjBJeW5PTGM0MjBOcndyU2F5MERPNUdrR3VVbFJYa3VJWXRPajFnUDRkdTZnMVlsd29tdjN5akp3NWQ1WDdRQ2lxQThRYXBHUzhrRkJIMkQrbkt3TjZxNnJQc25aTDBraEM0bWlMS0pTd1FteStWQjk3THdDNFlpcGo2WUttTTBmT1YrbWdpTkJydk5ZRDJWWkpJWGUyUjUxU1VHcHVWWENpT1o4dk0yRmxXZjNnUFVLc2xZa2ZNNWJXcHBqSldodE9YMHc4MXBjYXFTSE9naTFjWC9FS2sweGI2U1JjNjVmNXhyNktwdlZXR0tLZUkyT1VFY0ZVMFpCN05QZUwxTW9BRkF2Q3VwYWpGV1pMelZ3ZGdoOGxyN1VXTGhIQ0ljNlhWVU9lRDVqWTA2LzZ0b1hHT3BwWE5oUGJyNWlISjlvS3gvelVJY3RyRTdXeUxjMTAyOXpseE9oNXRlR3h5RFpsMlpiVXpQc0p3NDdzYTlZVUxQRU9NOVBpVVJaRjgxa0s3ZU1tRmRNck1TdFZjNE13cVdRUzZ3V0lpUHdtRmF5QzFFajhnU3lDYzJzWEZFVENZbXhhNitqUWpFYzZ2VVFielBzaVpJcjQ4N3hKaVh1eWN4bGdzNHVXTVdtdFJqelJFMDB1YlB6K3BqNE5nL3g1VVA5NDEyWlFIRFdTNU5oeE1CSEduSVZBVEgxVTdLbEJ1aG1FOVVDSE0yZDViTlNtRFdBVzkzNUtwM0Y2aVNJT0hKWU1iSG9zZE0rb2VuQ2xha011YjJ6ZTV1MU9ScTZkTnI2TXZFWG5IVXdpd295SjRaYlJnZDlKODZYTU9NaDNQanp4OTJLbzEvTWRjMlRMZFZEeGk2ZlhlYU00NEt6NjhBblhlQXpaMzhiUlFzWVFWMVZjUjJwM2xrR2R5Z1grb2hmRlJNQjd0REduQXVzUG1kT2k2MjNNZDFWcDB0bWEyYjZKbFJSamJsMHVHZDcwelZPeVZ6ZkVJN21STjFNOUszTW1PVk1HSFRCL2RpSC91UUE4OXJGVnM2ZXQyMk9mZHd2ZXVFUnc5KzRRRnN5bi9WRU00NGg1eld2T3ZSTTF5d21oanFDWFNiVGV6dTMxQldEWVI5YzBIMGtEYkpjeEFYOCtXRFBGTmFTR210Mk5leHJTY000SCt5Q24yZjdzdlArM1F6MEs0ZVl3OUI3TUJPOXRNRTNZaCtwQ29PZHpmM1phMzBMdHZLa0pxcFZ3UmtZdkU0WlhiTnBvcTBhV0xNTjFVbjM3QmhONk5zNStETFRWWHlNeWxVVGMvUmhzUC9tSTF4TURtVE9GcEFYZFRUWWxLYzAwakFsS3QwR3p2M1pwa05mY3pKaFRUS3MzMDZ2dHNldHZoVTE2RGRvWE5DdER0RVlsWFlhY0MxOW5rL09kajF2VDhkWFcwL0hzNS9oVE9HZG55T2Z3bHhqSDRJZFJCcnNtNzd6OSt2K041dWdwaC93WUNQODdqcFR3WnBQbWFVek0zVUo4SjRMekhrOC9IVDBJL2lvQlArYy9RbG43aUxRQ1h1blVXbnRnN1ZObjY0eHRYQ25CMmdBaHJqb0FYdTRyNGJlOGZuaTJRMVJrUURlU3FQQ3FpSmVoeTZRcmJGcTc4OVdYRHc1VkdNNm9HeXV6eEZYREIzZ3dzZlFxZEg5NERsSFJYc0NYVVhvVytud0hMckJQY3pmbms4SGYwRW13cGhkZ3M3azdBbTVBdzhiWm01dVFsOHM0a0orWFBCbmV3Ykw1cE43TytlVEVpdy93WW1xRis4NWJCUENDZU9pclFjdm4yMERMOGE4M1VWY1E5L3RmYlhIT0lEZEZNYlFrUnFXTG0wZzB6YURod1JkUG0yV3JubFl6cWZDRUpITCtReWV5OTNTRWQ3TWdleHNYOGNNck5rY0xGZmZXSDBPYTg4b2RWWW1ES2h4eS9rWklScXBiUjFyRnYwZThuRkJzaWRKWnkwSDl0bDY3R0krN1N3WHNpS2JkZWZveklUZWNuUDJQSmF1WThqS2dCK3k3bW9UZE9jWC8rcmNZcnRoOU94eDhDQ2dBNzMrS2VhODczbW93NXhlM2UyKzE4OFc1UkMzeG9CZ3Q5aWE3TkwxaHJGd0hYUG5YY0hDcFFSeDVtNGdMNjNobVFpZWFNSENTNXgrSTFmL1JQVDlsVHkraSt1elJlN3FZUGJ4clNLMXBqUE1RTWlhdytlU0F5Nk45RDZmZjFZT205bTBOVjF2OE0zR25VOUZzeE1FaUpUV2N0NUgyb3Zza3UvTzNUcG5La0xlc3hkZHEvZlIxcHFTZWFtM2dHTzRudlhZZVRuRFJNL00weFhyb1diQ1BYU0NPbXlVUWJhNXcvZ1NkVTlnZDF3T0VhV0Q1enpST284MzEzRXdZQ3VlcysxaTF3M3IxdHdHaDZXMCtqZHQrQitJTjhnN0VUS0NoNHk0ZU1XRjI1Z2lkNVhOUEU4NkhjKzdTOExqZ292UEsyY3AzTU12T2JrWVlreEZIZVFxVkxmVkVMRkRidjZ4RHd2eEdCWERYUWp6YzZoSWtnNVZ5bnRmMWVCenhmUVdSNEJWZmhqaTZFVTJQSmZrdTNXdmxRMWlEVTUwbVhQRkdHU204Tit0TEMrVy9hdjE3YjBWU3pjNG1HNXc2M011dCtMYXFwUENHN0RyWWcxaTgwLzBMN2hRUU5iQy9vWU91UVA5SFBTUW5QeUs4UjN1cjMzUnVkZmlyRG5jQXQzTHJUcjBMWWJiZjRpMHl4MTZmNnVxOFpBbktkaVh3czFEaDlxMjVvdzkyTGtib3ZmQ0lkVVY5STRGMkZVUnpUN0YvUXVYOU1MdnhKMTR3T3NWZkthWmJCY2NUbU1IN3U0aWJzREdVOFFiNEkvTCtXT0k0YUNBMjNCdFpuL1lzMGpUL2NLOTlJS1hYSjFkY2wyYTBtdFdzZWI4YTczZjdIdjVQVlQraThZNmhrOU5FYi9hZUN6V29QdmN3Q2Y0QTFSdFJsZnRPb1pQczhFNmY5dVBwTy83dllFTGU5NE1aT0R3Lyt6S0lDYTdKbW0vU1UyeUw0Um4wYXBKVlNUTnJvTXAxd1g4bFNLOWNzU3NlQjJmWGhsWFZ1QXVzdlNPYmVYWnF6QzhzcnliRjlXdlJDajhjdVZDL3dJdnluM2dSZDFuR085cWpoR1lrUklkS2RHUkVoMHAwWkVTSFNuUmtSSWRLZEdSRWgwcDBaRVNIU25Sa1JJZEtkR1JFaDBwMFpFU0hTblJrUklkS2RGL1FvbXlrMytURTMySW5OOXN1UGY2S0t2M3JVcXF6S3krOGwzUk15ZXFjNkNPU1pKNlZ4VWpNem95b3lNek9qS2pJek02TXFNak16b3lveU16T2pLakl6TTZNcU1qTXpveW95TXpPaktqSXpNNk1xTWpNem95by8vb3k2TGkveHd6K3ZIYm9oK0owRHhwNHZSYm5HZGRaV1dUN09RaitHQXdqZ1haeS9zQ2hoVWszS2ZEelBNZ2JRcDZtOVRzcWp5WlY3VGFnYVNzeW9Ga3BlK1kwemdabFA5OWFqVzhqbDcwL0o1UmV0dnpFOGN6RFB2NEtGMU1Qck85UmJzWjNnYnhhOWdmZHNtdmNWWFVoMkhoUDhmK2w4ZTMyTDk4Yy9nTysxczQzRU12aUQ4SmVmNzd5Q2NsbVE0dm9uakY1NXY0Z1M4VmhZSC9YcDdjM2puQnZlUk9RajY4c09LNzN2dU9kMjZ5WFVMREpqdStWZjgxbDExM2VCNmk5ZzRjN2gwNE43MDNGZnZxc0l1VDY2cjdOMVc4VThTS0QrOVFmbWRMRSs0MlNmTkIwUm5CbDJQL2ZWREZId0xxUFhUZmh2bi9GOVNIaC84cXFKLy9ZbzMrc1NYNVhjVVVlRUdBbXZTVm0rQ24xKzdxME5Dc0JQdHU3OHRodmxLNGowZnlhMXdmZnN5Ri9mNmZkL0JmdWJEL0tJSi9lTkYrL0g0b2ZOZmIzdzZGRHg2L2k0MnZZL1RlK3drRlpIYkR2RjlwdGNuaTN6WmhrK3gvM1hkbG5PNnFzanJzZjl2dGY0TzBIb0wxaDdSVW45bTNDRDE4cGFWaXZnTFI0OCtDYURLVzROZjhFZmkzNkFpZi8xNEo1ajYvVmNROXZGUDBrMHN3Ky9FYkJQL0hxRDU4b3lyK2RWVGZLV0tZSDRRcURGOWZUM2FaL3ZxU04xNytEdz09Jmx0Oy9kaWFncmFtJmd0OyZsdDsvbXhmaWxlJmd0OyIgdmlld0JveD0iLTAuNSAtMC41IDE2NiAzNDQiIGhlaWdodD0iMzQ0cHgiIHdpZHRoPSIxNjZweCIgdmVyc2lvbj0iMS4xIj48ZGVmcy8+PGc+PHJlY3Qgc3Ryb2tlLXdpZHRoPSIyIiBzdHJva2U9IiM0MDQwZmYiIGZpbGw9IiM5OWZmZmYiIGhlaWdodD0iMTMwIiB3aWR0aD0iMTI5IiB5PSIxIiB4PSIxIi8+PGcgdHJhbnNmb3JtPSJ0cmFuc2xhdGUoLTAuNSAtMC41KSI+PHN3aXRjaD48dGV4dCBmb250LXdlaWdodD0iYm9sZCIgdGV4dC1hbmNob3I9Im1pZGRsZSIgZm9udC1zaXplPSIxMnB4IiBmb250LWZhbWlseT0iSGVsdmV0aWNhIiBmaWxsPSIjMDAwMDAwIiB5PSIyMCIgeD0iNjYiPkdlbmVyaWMgVGVudGFjbGU8L3RleHQ+PC9zd2l0Y2g+PC9nPjxyZWN0IHN0cm9rZS13aWR0aD0iMiIgc3Ryb2tlPSIjMDA4ODAwIiBmaWxsPSIjZDVlOGQ0IiBoZWlnaHQ9IjIxMCIgd2lkdGg9IjEyOSIgeT0iMTMzIiB4PSIxIi8+PHJlY3Qgc3Ryb2tlPSJub25lIiBmaWxsPSIjZmZlNmNjIiBoZWlnaHQ9IjE4MCIgd2lkdGg9IjcwIiB5PSI0MSIgeD0iOTQiLz48ZyB0cmFuc2Zvcm09InRyYW5zbGF0ZSgtMC41IC0wLjUpIj48c3dpdGNoPjx0ZXh0IHRleHQtYW5jaG9yPSJtaWRkbGUiIGZvbnQtc2l6ZT0iMTJweCIgZm9udC1mYW1pbHk9IkhlbHZldGljYSIgZmlsbD0iI0QwODAwMCIgeT0iNjAiIHg9IjEyOSI+SW5rYnVzPC90ZXh0Pjwvc3dpdGNoPjwvZz48cGF0aCBzdHJva2UtbWl0ZXJsaW1pdD0iMTAiIHN0cm9rZT0iIzAwMDAwMCIgZmlsbD0ibm9uZSIgZD0iTSAxMDUuNTYgNzEuNTUgTCAxNjIgNzEiLz48ZyB0cmFuc2Zvcm09InRyYW5zbGF0ZSgtMC41IC0wLjUpIj48c3dpdGNoPjx0ZXh0IHRleHQtYW5jaG9yPSJtaWRkbGUiIGZvbnQtc2l6ZT0iMTFweCIgZm9udC1mYW1pbHk9IkhlbHZldGljYSIgZmlsbD0iIzAwMDAwMCIgeT0iODIiIHg9IjEzNCI+STJDPC90ZXh0Pjwvc3dpdGNoPjwvZz48cGF0aCBzdHJva2UtbWl0ZXJsaW1pdD0iMTAiIHN0cm9rZT0iIzAwMDAwMCIgZmlsbD0ibm9uZSIgZD0iTSAxMDMgMTAzLjU4IEwgMTE0LjggMTAzLjU4IE0gMTUwLjIgMTAzLjU4IEwgMTYyIDEwMy41OCBNIDExOS41MiAxMDIuOCBMIDE0Ny44NCA5MSIvPjxlbGxpcHNlIHN0cm9rZT0iIzAwMDAwMCIgZmlsbD0icmdiKDI1NSwgMjU1LCAyNTUpIiByeT0iMi4zNTk1IiByeD0iMi4zNiIgY3k9IjEwMy41OCIgY3g9IjE0Ny44NCIvPjxlbGxpcHNlIHN0cm9rZT0iIzAwMDAwMCIgZmlsbD0icmdiKDI1NSwgMjU1LCAyNTUpIiByeT0iMi4zNTk1IiByeD0iMi4zNiIgY3k9IjEwMy41OCIgY3g9IjExNy4xNiIvPjxnIGZvbnQtc2l6ZT0iMTJweCIgdGV4dC1hbmNob3I9Im1pZGRsZSIgZm9udC1mYW1pbHk9IkhlbHZldGljYSIgZmlsbD0iIzAwMDAwMCI+PHRleHQgeT0iMTE3LjM3IiB4PSIxMzIiPlVTQjwvdGV4dD48L2c+PHBhdGggc3Ryb2tlLW1pdGVybGltaXQ9IjEwIiBzdHJva2U9IiMwMDAwMDAiIGZpbGw9Im5vbmUiIGQ9Ik0gMTAzIDE1NS41OCBMIDExNC44IDE1NS41OCBNIDE1MC4yIDE1NS41OCBMIDE2MiAxNTUuNTggTSAxMTkuNTIgMTU0LjggTCAxNDcuODQgMTQzIi8+PGVsbGlwc2Ugc3Ryb2tlPSIjMDAwMDAwIiBmaWxsPSJyZ2IoMjU1LCAyNTUsIDI1NSkiIHJ5PSIyLjM1OTUiIHJ4PSIyLjM2IiBjeT0iMTU1LjU4IiBjeD0iMTQ3Ljg0Ii8+PGVsbGlwc2Ugc3Ryb2tlPSIjMDAwMDAwIiBmaWxsPSJyZ2IoMjU1LCAyNTUsIDI1NSkiIHJ5PSIyLjM1OTUiIHJ4PSIyLjM2IiBjeT0iMTU1LjU4IiBjeD0iMTE3LjE2Ii8+PGcgZm9udC1zaXplPSIxMnB4IiB0ZXh0LWFuY2hvcj0ibWlkZGxlIiBmb250LWZhbWlseT0iSGVsdmV0aWNhIiBmaWxsPSIjMDAwMDAwIj48dGV4dCB5PSIxNjkuMzciIHg9IjEzMiI+VVNCLCA1VjwvdGV4dD48L2c+PHBhdGggc3Ryb2tlLW1pdGVybGltaXQ9IjEwIiBzdHJva2U9IiMwMDAwMDAiIGZpbGw9Im5vbmUiIGQ9Ik0gMTAzIDE5NS41OCBMIDExNC44IDE5NS41OCBNIDE1MC4yIDE5NS41OCBMIDE2MiAxOTUuNTggTSAxMTkuNTIgMTk0LjggTCAxNDcuODQgMTgzIi8+PGVsbGlwc2Ugc3Ryb2tlPSIjMDAwMDAwIiBmaWxsPSJyZ2IoMjU1LCAyNTUsIDI1NSkiIHJ5PSIyLjM1OTUiIHJ4PSIyLjM2IiBjeT0iMTk1LjU4IiBjeD0iMTQ3Ljg0Ii8+PGVsbGlwc2Ugc3Ryb2tlPSIjMDAwMDAwIiBmaWxsPSJyZ2IoMjU1LCAyNTUsIDI1NSkiIHJ5PSIyLjM1OTUiIHJ4PSIyLjM2IiBjeT0iMTk1LjU4IiBjeD0iMTE3LjE2Ii8+PGcgZm9udC1zaXplPSIxMnB4IiB0ZXh0LWFuY2hvcj0ibWlkZGxlIiBmb250LWZhbWlseT0iSGVsdmV0aWNhIiBmaWxsPSIjMDAwMDAwIj48dGV4dCB5PSIyMDkuMzciIHg9IjEzMiI+SU88L3RleHQ+PC9nPjxwYXRoIHN0cm9rZS1taXRlcmxpbWl0PSIxMCIgc3Ryb2tlPSIjMDAwMDAwIiBmaWxsPSJub25lIiBkPSJNIDE4LjkgMTEzLjU4IEwgMzAuNyAxMTMuNTggTSA2Ni4xIDExMy41OCBMIDc3LjkgMTEzLjU4IE0gMzUuNDIgMTEyLjggTCA2My43NCAxMDEiLz48ZWxsaXBzZSBzdHJva2U9IiMwMDAwMDAiIGZpbGw9InJnYigyNTUsIDI1NSwgMjU1KSIgcnk9IjIuMzU5NSIgcng9IjIuMzYiIGN5PSIxMTMuNTgiIGN4PSI2My43NCIvPjxlbGxpcHNlIHN0cm9rZT0iIzAwMDAwMCIgZmlsbD0icmdiKDI1NSwgMjU1LCAyNTUpIiByeT0iMi4zNTk1IiByeD0iMi4zNiIgY3k9IjExMy41OCIgY3g9IjMzLjA2Ii8+PGcgZm9udC1zaXplPSIxMnB4IiB0ZXh0LWFuY2hvcj0ibWlkZGxlIiBmb250LWZhbWlseT0iSGVsdmV0aWNhIiBmaWxsPSIjMDAwMDAwIj48dGV4dCB5PSIxMjcuMzciIHg9IjQ3LjkiPkJvb3QgVFA8L3RleHQ+PC9nPjxwYXRoIHN0cm9rZS1kYXNoYXJyYXk9IjIgNiIgc3Ryb2tlLW1pdGVybGltaXQ9IjEwIiBzdHJva2Utd2lkdGg9IjIiIHN0cm9rZS1vcGFjaXR5PSIwIiBzdHJva2U9IiNmZjAwMDAiIGZpbGw9Im5vbmUiIGQ9Ik0gNDEgMTQxIEwgOTEgOTEiLz48cmVjdCBzdHJva2U9Im5vbmUiIGZpbGw9Im5vbmUiIGhlaWdodD0iNDQuOCIgd2lkdGg9IjQ0LjgiIHk9IjQxIiB4PSIzMy4xIi8+PHBhdGggc3Ryb2tlPSJub25lIiBmaWxsPSIjNDQ5NWQxIiBkPSJNIDYyLjMyIDcyLjY5IEMgNjAuNzcgNzIuNjkgNTkuNjYgNzEuNDYgNTkuNjYgNzAuMDYgQyA1OS42NiA2OC45NiA2MC42MiA2Ny41MyA2Mi4zMiA2Ny41MyBDIDYzLjU0IDY3LjUzIDY0LjgyIDY4LjQ1IDY0LjgyIDcwLjA2IEMgNjQuODIgNzEuNDYgNjMuNzggNzIuNjkgNjIuMzIgNzIuNjkgTCA2Mi4zMiA3Mi42OSBaIE0gNjcuNzIgNzUuNjIgTCA2Ny43MiA1MS4wOCBMIDQzLjU3IDUxLjA4IEwgNDMuNTcgNzUuNjIgTCA2Ny43MiA3NS42MiBaIE0gNDIuOCA3OC4zOSBDIDQxLjc2IDc4LjM5IDQwLjggNzcuNzEgNDAuOCA3Ni40MSBMIDQwLjggNTAuMzEgQyA0MC44IDQ4Ljg5IDQxLjkgNDguMzEgNDIuNzYgNDguMzEgTCA2OC41IDQ4LjMxIEMgNjkuNjkgNDguMzEgNzAuNDcgNDkuMSA3MC40NyA1MC4zMyBMIDcwLjQ3IDc2LjI3IEMgNzAuNDkgNzcuNiA2OS43MiA3OC4zOSA2OC4zOSA3OC4zOSBMIDQyLjggNzguMzkgWiBNIDcyLjQ4IDc1LjQxIEwgNzIuNDggNzIuNzcgTCA3Ny45IDcyLjc3IEwgNzcuOSA3NS40MSBMIDcyLjQ4IDc1LjQxIFogTSA3Mi40OCA3MC4xMSBMIDcyLjQ4IDY3LjQ1IEwgNzcuOSA2Ny40NSBMIDc3LjkgNzAuMTEgTCA3Mi40OCA3MC4xMSBaIE0gNzIuNDggNjQuOTggTCA3Mi40OCA2Mi40IEwgNzcuOSA2Mi40IEwgNzcuOSA2NC45OCBMIDcyLjQ4IDY0Ljk4IFogTSA3Mi40OCA1OS45MSBMIDcyLjQ4IDU3LjI3IEwgNzcuOSA1Ny4yNyBMIDc3LjkgNTkuOTEgTCA3Mi40OCA1OS45MSBaIE0gNzIuNDggNTQuNjEgTCA3Mi40OCA1MS45NiBMIDc3LjkgNTEuOTYgTCA3Ny45IDU0LjYxIEwgNzIuNDggNTQuNjEgWiBNIDMzLjEgNTQuNjEgTCAzMy4xIDUxLjk2IEwgMzguNTUgNTEuOTYgTCAzOC41NSA1NC42MSBMIDMzLjEgNTQuNjEgWiBNIDMzLjEgNTkuOTEgTCAzMy4xIDU3LjI3IEwgMzguNTUgNTcuMjcgTCAzOC41NSA1OS45MSBMIDMzLjEgNTkuOTEgWiBNIDMzLjEgNjQuOTggTCAzMy4xIDYyLjQgTCAzOC41NSA2Mi40IEwgMzguNTUgNjQuOTggTCAzMy4xIDY0Ljk4IFogTSAzMy4xIDcwLjExIEwgMzMuMSA2Ny40NSBMIDM4LjU1IDY3LjQ1IEwgMzguNTUgNzAuMTEgTCAzMy4xIDcwLjExIFogTSAzMy4xIDc1LjQxIEwgMzMuMSA3Mi43NyBMIDM4LjU1IDcyLjc3IEwgMzguNTUgNzUuNDEgTCAzMy4xIDc1LjQxIFogTSA0NC4wNyA0Ni40NSBMIDQ0LjA3IDQxIEwgNDYuNyA0MSBMIDQ2LjcgNDYuNDUgTCA0NC4wNyA0Ni40NSBaIE0gNDkuMzQgNDYuNDUgTCA0OS4zNCA0MSBMIDUxLjk5IDQxIEwgNTEuOTkgNDYuNDUgTCA0OS4zNCA0Ni40NSBaIE0gNTQuNDQgNDYuNDUgTCA1NC40NCA0MSBMIDU3LjA1IDQxIEwgNTcuMDUgNDYuNDUgTCA1NC40NCA0Ni40NSBaIE0gNTkuNSA0Ni40NSBMIDU5LjUgNDEgTCA2Mi4xMiA0MSBMIDYyLjEyIDQ2LjQ1IEwgNTkuNSA0Ni40NSBaIE0gNjQuNzUgNDYuNDUgTCA2NC43NSA0MSBMIDY3LjQgNDEgTCA2Ny40IDQ2LjQ1IEwgNjQuNzUgNDYuNDUgWiBNIDY0Ljc1IDg1LjggTCA2NC43NSA4MC4yOSBMIDY3LjQgODAuMjkgTCA2Ny40IDg1LjggTCA2NC43NSA4NS44IFogTSA1OS41IDg1LjggTCA1OS41IDgwLjI5IEwgNjIuMTIgODAuMjkgTCA2Mi4xMiA4NS44IEwgNTkuNSA4NS44IFogTSA1NC40NCA4NS44IEwgNTQuNDQgODAuMjkgTCA1Ny4wNSA4MC4yOSBMIDU3LjA1IDg1LjggTCA1NC40NCA4NS44IFogTSA0OS4zNCA4NS44IEwgNDkuMzQgODAuMjkgTCA1MS45OSA4MC4yOSBMIDUxLjk5IDg1LjggTCA0OS4zNCA4NS44IFogTSA0NC4wNyA4NS44IEwgNDQuMDcgODAuMjkgTCA0Ni43IDgwLjI5IEwgNDYuNyA4NS44IEwgNDQuMDcgODUuOCBaIi8+PHJlY3Qgc3Ryb2tlPSJub25lIiBmaWxsPSJub25lIiBoZWlnaHQ9IjgwIiB3aWR0aD0iMjAiIHk9IjI2LjczIiB4PSIxIi8+PGcgdHJhbnNmb3JtPSJ0cmFuc2xhdGUoLTAuNSAtMC41KXJvdGF0ZSgtOTAgMTEgNjYuNzMwMDAwMDAwMDAwMDIpIj48c3dpdGNoPjx0ZXh0IHRleHQtYW5jaG9yPSJtaWRkbGUiIGZvbnQtc2l6ZT0iMTJweCIgZm9udC1mYW1pbHk9IkhlbHZldGljYSIgZmlsbD0iIzQwNDBGRiIgeT0iNzAiIHg9IjExIj5JbmZyYXN0cnVjdHVyZTwvdGV4dD48L3N3aXRjaD48L2c+PHJlY3Qgc3Ryb2tlPSJub25lIiBmaWxsPSJub25lIiBoZWlnaHQ9IjExMi4yNyIgd2lkdGg9IjIwIiB5PSIxMzQuNzMiIHg9IjIiLz48ZyB0cmFuc2Zvcm09InRyYW5zbGF0ZSgtMC41IC0wLjUpcm90YXRlKC05MCAxMiAxOTAuODY1KSI+PHN3aXRjaD48dGV4dCB0ZXh0LWFuY2hvcj0ibWlkZGxlIiBmb250LXNpemU9IjEycHgiIGZvbnQtZmFtaWx5PSJIZWx2ZXRpY2EiIGZpbGw9IiMwMDg4MDAiIHk9IjE5NCIgeD0iMTIiPlRQICh0ZXN0IHBhcnRpY2lwYW4uLi48L3RleHQ+PC9zd2l0Y2g+PC9nPjxwYXRoIHN0cm9rZS1taXRlcmxpbWl0PSIxMCIgc3Ryb2tlLXdpZHRoPSIyIiBzdHJva2U9IiM0MDQwZmYiIGZpbGw9Im5vbmUiIGQ9Ik0gOTQgMTMxIEwgMTY0IDEzMSIvPjxwYXRoIHN0cm9rZS1taXRlcmxpbWl0PSIxMCIgc3Ryb2tlLXdpZHRoPSIyIiBzdHJva2U9IiMwMDg4MDAiIGZpbGw9Im5vbmUiIGQ9Ik0gOTQgMTMzIEwgMTY0IDEzMyIvPjwvZz48c3dpdGNoPjxnLz48YSB0YXJnZXQ9Il9ibGFuayIgeGxpbms6aHJlZj0iaHR0cHM6Ly93d3cuZGlhZ3JhbXMubmV0L2RvYy9mYXEvc3ZnLWV4cG9ydC10ZXh0LXByb2JsZW1zIiB0cmFuc2Zvcm09InRyYW5zbGF0ZSgwLC01KSI+PHRleHQgeT0iMTAwJSIgeD0iNTAlIiBmb250LXNpemU9IjEwcHgiIHRleHQtYW5jaG9yPSJtaWRkbGUiPlRleHQgaXMgbm90IFNWRyAtIGNhbm5vdCBkaXNwbGF5PC90ZXh0PjwvYT48L3N3aXRjaD48L3N2Zz4=;" parent="1" vertex="1">
                    <mxGeometry x="24" y="500" width="166" height="344" as="geometry"/>
                </mxCell>
                <mxCell id="QVaBI0Wi_gaqylhbhUQJ-2" value="TP rp2040" style="shape=image;imageAspect=0;aspect=fixed;verticalLabelPosition=bottom;verticalAlign=top;strokeColor=#008800;fontColor=#000000;fillColor=#0000FF;image=data:image/svg+xml,PHN2ZyB4bWxuczp4bGluaz0iaHR0cDovL3d3dy53My5vcmcvMTk5OS94bGluayIgeG1sbnM9Imh0dHA6Ly93d3cudzMub3JnLzIwMDAvc3ZnIiBjb250ZW50PSImbHQ7bXhmaWxlJmd0OyZsdDtkaWFncmFtIGlkPSZxdW90Ozh5SzlSM3p2VDhzUldjaEdUSWlKJnF1b3Q7IG5hbWU9JnF1b3Q7Z2VuZXJpYy10ZW50YWNsZSZxdW90OyZndDs3WmxiYzZNMkZNYy9qV2ZhaHpEaVpwdkh0Uk5uTTlOT1BYVjNOMzFVUUlBYVFCNGgzL2JUVndKeEVaSVRaME15M1U3OGtFRi9kRUhuZHlTZG8wemNaWDY4cFhDYi9rNGlsRTBjRUIwbjd2WEVjWHpnOGI5Q09OV0NFOHhxSWFFNHFpVzdFemI0TzVJaWtPb09SNmhVS2pKQ01vYTNxaGlTb2tBaFV6UklLVG1vMVdLU3FhTnVZWUkwWVJQQ1RGZS80WWlsdFRwM1pwMytHZUVrYlVhMnAwSDlKb2ROWlRtVE1vVVJPZlFrOTJiaUxpa2hySDdLajB1VUNkczFkcW5icmM2OGJUK01vb0pkMHNDcEcreGh0cE56dTBVRm9qams0bCs4RHhqeU9kZGZ5azdOOUNuWkZSRVNQWUNKdXppa21LSE5Gb2JpN1lIejVscks4b3lYYlA2NFI1UmhicnBQR1U0S3JqRWlLcFNNa3NmV2VIemFpeGhuMlVhT1VaSk1mR0NsTFVsR2FEV3VHd1FyL210Yjk5NTR3QVBWbTVnVXJLZUQ2aWYxcG5lRGthUWt2aFVkZTVJMDJpMGlPV0wweEt2SXQ0NG5BVW9QRG1UeDBMbUQ3VWpvYWQ4VlhGa1JTaGRNMnE0N1N2eEJnakpEdTZPYjVaL3c2K3FmMitNM0hDL1M1YzNuK3lzNzBGRCtaOEJGUHBwSG5na2NBUFA1T1VBYURRT3ppd0cxcnY0Y29YYVRHWitRdnRqdWlzZUhYZms2VGdOYnh6R2FocUZtNjRJVVNMUWpGSC9ucG9aUFUrN1RBUHF5dWdiemVsbU5BTXAxWFFWVXUwSjZvR2JBc0pMbUkzRHlkQ0xPVXNPQml1aVRPRFY2WnV6TXJ5NElvZkNKMDlPOXNKd1ZCTk5HK0xzUzdNQnZoT3VqTkc1ZE92VkxhNzRGODhrZ0trVkNXVW9TVXJUWU12aUFzZ1VNSDVQS1Z3YVV6KzJDaHVVSCtpQU5XeUtLbEtQd0xNWXJZQUVicUNpdlp2cVNBNUlhUlJsa2VLOGVxQ2FVY3NRMXdmekxPcS94UE11ZnFvNHpCWmJ2cXgyVlpFZERKTnYyajhGQmR4NndMZEQvYVYyci9USklFOFNlNkxlcFNPSzRSRXFkeWlWYisxM2twYjVoWitjZjZObzF1ZmJ4eTJhaCtTNFBNTGJpTVQ4bUloU3pVTVlESWlwV3ZId2tWemtLVTFoVVVvbUxKRU9iQTJZaEI3YUE1YllPbjJKOEZOdlJBbVgxdXcyRFRQVEtwL2Vlem5qNStleDZqa3B3cnU4cXZ1bDg5cTJaKy9wOVpmb1NZcnczNEgvOUlHY201N2o2d2YyRzVHWVhrcnY3NHdQWUdXQ3pkd1ZtRExYbUYxSmNpRVNMWnpyci94SE0xNFhOL3N3SzFKM1RrTnE4Tjg0TFVoczlSb3RnbVZZeHRLMEdiRUpmUThhRHE2TE9OWGpVWXNwcm5xYWpVVml0SkFYQ0kzWE1tbkRPR0VWZFJLUnZiMFA4NjQ4VFNEbnpRWjQwVEZBdkRhRmNWKzFJaTgvUHhFdy9FQStac3l2N2VTZlppc0VSdmRsejI1ZE4vTjdjd0lDK3p3QlRrRDljb0dyaTVYbUIzOFhtYTFKaWhvbHdzUkFWVlNUZjVscS9EU284RU1aSWZqWVpnN0xVOWtOMkxNTUYvNXptZGd2VTgxQTJyRDFDTUxmQzdXNmtqV0htV0xZSzJKQ284YWg4cnJ0cXA0NmZVK3ZuOVYwUlU4aUI3VUsyby9ybEZUY0JleUZjS1drY2hyaHlIRVZpR0dQR3J1YjBTaDV1eUxEYkM2MHgwQTJ1UXV6ZVZ0MWo1eGcybVRGeWJETTMvWVFXaHpENGhhR1MxYlBqcHNWYldMQmZmMUtFN2RYV0tBalZ0Y2UzMjBzUjJyWmpOVkh0NkJnZDkwZE9adFdPTHp4bjI1Vmh1SWxVQWF4VzhwYXF2WkJwYjJmcXk1aG5yMktPbU4zM25udXRlS2xySkFvL3kzay92RzVyZmVibFZ5YlBkUFRHNTczaDd1NnRYYTlkMFIrdU40N3JPV081bmpPUzYvRmk5NyszdW5yM0QwejM1bDg9Jmx0Oy9kaWFncmFtJmd0OyZsdDtkaWFncmFtIGlkPSZxdW90O3gwRVhxaXNaeElBQUZKaVM3Q2gxJnF1b3Q7IG5hbWU9JnF1b3Q7cG93ZXIgYW5kIHVzYiZxdW90OyZndDs3VnhaZDV2SUV2NDFlWnc1ckk3MUtJbmRBbGtzamVpWE9VQXpBdEVza1pBRS9QcGJhTEZsTzVuTWt0eTU1MXdtazJOMzBWMWRYVjlWZGVrN0NwLzRlZEdxdTdCT3pZb2s5QlBIa1BZVEwzM2lPUGJoNFRQOEdDVGRSU0pNaEl0Z3M4dklkZEtyd01uNjVDcGtydEpEUnBMOW00bE5WZEVtcTk4SzQ2b3NrN2g1SXd0M3UrcjBkdHJ2RlgyN2F4MXVrZzhDSnc3cFI2bWZrU2E5U0IrNXo2OXlMY2syNlcxbjltRnllVktFdDhuWGsrelRrRlNuT3hFdmYrTG51NnBxTHI4VjdUeWhnL051ZnJtc1U3N3g5TVd3WFZJMmYyWkJtZlJQQ3ovR3A0ZEhOK2gvbHpiT3dmM2xxdVVZMHNQMXdIcjUreTRFa1F0cXd4amNjREcrNlc0ZWdYUFV3NjlaY1hiZDdQeHp1cTh2M21kQUV0NEd2MmR0QXJ2UGpzbXV5Y0NuaXpCSzZITzF6NXFzS3VGNVZEVk5WZHhObU5Kc016eG9xdnFtR1VZa2JNSlAvUFF5NUpUOWNmT0ptN1VGSEc3K3JGa2M3bVpDNUxlSHVLK0ZTS1dIc0dleVVMT1pXS3FPQzU3d3BCTjVzeE9QY1JFZlRUY1hsODdrTXEvVE40bks3cVBTbk9oRnloQnQrckRvSnJBaVBwRGVQRVM4VVM1Ni9XUkswMlBNNDFMUFp0dUlFeG5zaTh5em94ZVJ0dm9jcmRNaTlGdHFGSVJaZG5oUHBDWVBmYVdNQzZYUlZaby9PN2dsL29SWjlxbm85TlF4K1pwRFV0cDdsR3hEbVhpT1Q1K01VbUVqZnZWWlY4VTA4cjNKYll3NWRNQnJvdzQ2OXJ4bjRGdDdmTlBYNFpKSWU5NHZqQ0xZb3A0d3lNTFpSQXNsTzFzaG1RdlptUnlVc3k4TEZsZUlvOGdxaklCSVU4Yno2blZJOVpOZnprUkhpam1UczdTbGxENUhrdUU1dWNDWjN1VEp6c1U5M3VvOTNvTHUzdFlkemQ2amRSMmFCV1VYVFBPUTVGUzF1RW00bEN3OUxvU09jUFVjZTZnZ3ZjWEhPZklpM3JJZExsMDdXL1JFV1BJbFpOb0ZwbFR4VmR4R0pWcDd6cjUxWFVWMVN2cmdxM0JXRCsxQ21TNWRadUxFQ25GWFc2c0lFRDY0eW9hekpIdnRlc2JLNCtxVjAzdTdxTGYyWkkwZTBEcnZWNjdNeGZObVpsTVNrSHlDUTJSbk1iTHFCVXNjaTJ1NjJHOVlwS1dXazZkbVdEVFlwQmFLQ3NURWEzdTM4Z1RlMFhSbTZUVU1XVmVuUko0MGljeVdXTFlQcnF6VUZtTzRUNnpIUC9WV0NMcWtGYUpWNURWZndBZXlYNGhmSXQ5bzhUYm9WbHRhSkw3ZU8ydmloeVZaQlhtK2kyUWsyQnBxWGJiV2tEUXJneTExSERZTkhNMmFZM1Vqckh3RitVWEtXbm5UbTNKVHhwcXk5aW5TWXE0OVdDb3VMZFhRZlNVVy9DMUtvNjJGUW43V3V5WEVzMHkyc2QrbXBBUjloY0hacVBiRG5tcVJaaGNScWxvL3AwZVA4emlUcjdpSXIzWnVRVzJUeG1EanByWFgxc0h1OGN6MDJUa3FHaHF3ZElmejFjbjI5aWVQTlhwdm5SOVhhM0lLR1lzbk1qNWFhNElXUFdZYzF1c3NsZzduM0dISWtFUTFuczB0bGhERHRMWmtNZ0duV0tFYmRLSEhuQncvRnNJMThpeVhsa2hCeDFYZUNvNnJpd2paczZqSFhGaXNCTHNrTzQremVWZVp0aEdYdWc1VFUrTEZUTnlucmVWYUIwK2gxUFhJZ2JCb3NlS3RoVU1SNjFOTHNiY2tNOWY1RHJPNmdGUmpGUldUblZsZ1BaYmIzT1Rvbm5pTTZHU1RKOHpMYkFBeDRrbHBsNVJFTlh0UzJxNWR4RnE2anIzSDFsV0RrNTJuVXV3YW1LakdqRWhJQ3Z6cTlNUmFodThTYmJrRzMzcXBoNVNxOTdWWkUvdjEzbGRaSDdQQnlTd0QzdVp0ZWFraUg4NVpJRGw5TXZuWkhrdkU5NUhSV3V1Wmh5aWFQM0Uxalp3OUUybVV0YmJXUFBMdFZlUWlaOVdudmVubGJiUld3SlpBOEF0RVNUK3ppS2JvbGlmNmNCN1BacXcrWEVPTjBJeW5PTGM0MjBOcndyU2F5MERPNUdrR3VVbFJYa3VJWXRPajFnUDRkdTZnMVlsd29tdjN5akp3NWQ1WDdRQ2lxQThRYXBHUzhrRkJIMkQrbkt3TjZxNnJQc25aTDBraEM0bWlMS0pTd1FteStWQjk3THdDNFlpcGo2WUttTTBmT1YrbWdpTkJydk5ZRDJWWkpJWGUyUjUxU1VHcHVWWENpT1o4dk0yRmxXZjNnUFVLc2xZa2ZNNWJXcHBqSldodE9YMHc4MXBjYXFTSE9naTFjWC9FS2sweGI2U1JjNjVmNXhyNktwdlZXR0tLZUkyT1VFY0ZVMFpCN05QZUwxTW9BRkF2Q3VwYWpGV1pMelZ3ZGdoOGxyN1VXTGhIQ0ljNlhWVU9lRDVqWTA2LzZ0b1hHT3BwWE5oUGJyNWlISjlvS3gvelVJY3RyRTdXeUxjMTAyOXpseE9oNXRlR3h5RFpsMlpiVXpQc0p3NDdzYTlZVUxQRU9NOVBpVVJaRjgxa0s3ZU1tRmRNck1TdFZjNE13cVdRUzZ3V0lpUHdtRmF5QzFFajhnU3lDYzJzWEZFVENZbXhhNitqUWpFYzZ2VVFielBzaVpJcjQ4N3hKaVh1eWN4bGdzNHVXTVdtdFJqelJFMDB1YlB6K3BqNE5nL3g1VVA5NDEyWlFIRFdTNU5oeE1CSEduSVZBVEgxVTdLbEJ1aG1FOVVDSE0yZDViTlNtRFdBVzkzNUtwM0Y2aVNJT0hKWU1iSG9zZE0rb2VuQ2xha011YjJ6ZTV1MU9ScTZkTnI2TXZFWG5IVXdpd295SjRaYlJnZDlKODZYTU9NaDNQanp4OTJLbzEvTWRjMlRMZFZEeGk2ZlhlYU00NEt6NjhBblhlQXpaMzhiUlFzWVFWMVZjUjJwM2xrR2R5Z1grb2hmRlJNQjd0REduQXVzUG1kT2k2MjNNZDFWcDB0bWEyYjZKbFJSamJsMHVHZDcwelZPeVZ6ZkVJN21STjFNOUszTW1PVk1HSFRCL2RpSC91UUE4OXJGVnM2ZXQyMk9mZHd2ZXVFUnc5KzRRRnN5bi9WRU00NGg1eld2T3ZSTTF5d21oanFDWFNiVGV6dTMxQldEWVI5YzBIMGtEYkpjeEFYOCtXRFBGTmFTR210Mk5leHJTY000SCt5Q24yZjdzdlArM1F6MEs0ZVl3OUI3TUJPOXRNRTNZaCtwQ29PZHpmM1phMzBMdHZLa0pxcFZ3UmtZdkU0WlhiTnBvcTBhV0xNTjFVbjM3QmhONk5zNStETFRWWHlNeWxVVGMvUmhzUC9tSTF4TURtVE9GcEFYZFRUWWxLYzAwakFsS3QwR3p2M1pwa05mY3pKaFRUS3MzMDZ2dHNldHZoVTE2RGRvWE5DdER0RVlsWFlhY0MxOW5rL09kajF2VDhkWFcwL0hzNS9oVE9HZG55T2Z3bHhqSDRJZFJCcnNtNzd6OSt2K041dWdwaC93WUNQODdqcFR3WnBQbWFVek0zVUo4SjRMekhrOC9IVDBJL2lvQlArYy9RbG43aUxRQ1h1blVXbnRnN1ZObjY0eHRYQ25CMmdBaHJqb0FYdTRyNGJlOGZuaTJRMVJrUURlU3FQQ3FpSmVoeTZRcmJGcTc4OVdYRHc1VkdNNm9HeXV6eEZYREIzZ3dzZlFxZEg5NERsSFJYc0NYVVhvVytud0hMckJQY3pmbms4SGYwRW13cGhkZ3M3azdBbTVBdzhiWm01dVFsOHM0a0orWFBCbmV3Ykw1cE43TytlVEVpdy93WW1xRis4NWJCUENDZU9pclFjdm4yMERMOGE4M1VWY1E5L3RmYlhIT0lEZEZNYlFrUnFXTG0wZzB6YURod1JkUG0yV3JubFl6cWZDRUpITCtReWV5OTNTRWQ3TWdleHNYOGNNck5rY0xGZmZXSDBPYTg4b2RWWW1ES2h4eS9rWklScXBiUjFyRnYwZThuRkJzaWRKWnkwSDl0bDY3R0krN1N3WHNpS2JkZWZveklUZWNuUDJQSmF1WThqS2dCK3k3bW9UZE9jWC8rcmNZcnRoOU94eDhDQ2dBNzMrS2VhODczbW93NXhlM2UyKzE4OFc1UkMzeG9CZ3Q5aWE3TkwxaHJGd0hYUG5YY0hDcFFSeDVtNGdMNjNobVFpZWFNSENTNXgrSTFmL1JQVDlsVHkraSt1elJlN3FZUGJ4clNLMXBqUE1RTWlhdytlU0F5Nk45RDZmZjFZT205bTBOVjF2OE0zR25VOUZzeE1FaUpUV2N0NUgyb3Zza3UvTzNUcG5La0xlc3hkZHEvZlIxcHFTZWFtM2dHTzRudlhZZVRuRFJNL00weFhyb1diQ1BYU0NPbXlVUWJhNXcvZ1NkVTlnZDF3T0VhV0Q1enpST284MzEzRXdZQ3VlcysxaTF3M3IxdHdHaDZXMCtqZHQrQitJTjhnN0VUS0NoNHk0ZU1XRjI1Z2lkNVhOUEU4NkhjKzdTOExqZ292UEsyY3AzTU12T2JrWVlreEZIZVFxVkxmVkVMRkRidjZ4RHd2eEdCWERYUWp6YzZoSWtnNVZ5bnRmMWVCenhmUVdSNEJWZmhqaTZFVTJQSmZrdTNXdmxRMWlEVTUwbVhQRkdHU204Tit0TEMrVy9hdjE3YjBWU3pjNG1HNXc2M011dCtMYXFwUENHN0RyWWcxaTgwLzBMN2hRUU5iQy9vWU91UVA5SFBTUW5QeUs4UjN1cjMzUnVkZmlyRG5jQXQzTHJUcjBMWWJiZjRpMHl4MTZmNnVxOFpBbktkaVh3czFEaDlxMjVvdzkyTGtib3ZmQ0lkVVY5STRGMkZVUnpUN0YvUXVYOU1MdnhKMTR3T3NWZkthWmJCY2NUbU1IN3U0aWJzREdVOFFiNEkvTCtXT0k0YUNBMjNCdFpuL1lzMGpUL2NLOTlJS1hYSjFkY2wyYTBtdFdzZWI4YTczZjdIdjVQVlQraThZNmhrOU5FYi9hZUN6V29QdmN3Q2Y0QTFSdFJsZnRPb1pQczhFNmY5dVBwTy83dllFTGU5NE1aT0R3Lyt6S0lDYTdKbW0vU1UyeUw0Um4wYXBKVlNUTnJvTXAxd1g4bFNLOWNzU3NlQjJmWGhsWFZ1QXVzdlNPYmVYWnF6QzhzcnliRjlXdlJDajhjdVZDL3dJdnluM2dSZDFuR085cWpoR1lrUklkS2RHUkVoMHAwWkVTSFNuUmtSSWRLZEdSRWgwcDBaRVNIU25Sa1JJZEtkR1JFaDBwMFpFU0hTblJrUklkS2RGL1FvbXlrMytURTMySW5OOXN1UGY2S0t2M3JVcXF6S3krOGwzUk15ZXFjNkNPU1pKNlZ4VWpNem95b3lNek9qS2pJek02TXFNak16b3lveU16T2pLakl6TTZNcU1qTXpveW95TXpPaktqSXpNNk1xTWpNem95by8vb3k2TGkveHd6K3ZIYm9oK0owRHhwNHZSYm5HZGRaV1dUN09RaitHQXdqZ1haeS9zQ2hoVWszS2ZEelBNZ2JRcDZtOVRzcWp5WlY3VGFnYVNzeW9Ga3BlK1kwemdabFA5OWFqVzhqbDcwL0o1UmV0dnpFOGN6RFB2NEtGMU1Qck85UmJzWjNnYnhhOWdmZHNtdmNWWFVoMkhoUDhmK2w4ZTMyTDk4Yy9nTysxczQzRU12aUQ4SmVmNzd5Q2NsbVE0dm9uakY1NXY0Z1M4VmhZSC9YcDdjM2puQnZlUk9RajY4c09LNzN2dU9kMjZ5WFVMREpqdStWZjgxbDExM2VCNmk5ZzRjN2gwNE43MDNGZnZxc0l1VDY2cjdOMVc4VThTS0QrOVFmbWRMRSs0MlNmTkIwUm5CbDJQL2ZWREZId0xxUFhUZmh2bi9GOVNIaC84cXFKLy9ZbzMrc1NYNVhjVVVlRUdBbXZTVm0rQ24xKzdxME5Dc0JQdHU3OHRodmxLNGowZnlhMXdmZnN5Ri9mNmZkL0JmdWJEL0tJSi9lTkYrL0g0b2ZOZmIzdzZGRHg2L2k0MnZZL1RlK3drRlpIYkR2RjlwdGNuaTN6WmhrK3gvM1hkbG5PNnFzanJzZjl2dGY0TzBIb0wxaDdSVW45bTNDRDE4cGFWaXZnTFI0OCtDYURLVzROZjhFZmkzNkFpZi8xNEo1ajYvVmNROXZGUDBrMHN3Ky9FYkJQL0hxRDU4b3lyK2RWVGZLV0tZSDRRcURGOWZUM2FaL3ZxU04xNytEdz09Jmx0Oy9kaWFncmFtJmd0OyZsdDsvbXhmaWxlJmd0OyIgdmlld0JveD0iLTAuNSAtMC41IDE2NiAzNDQiIGhlaWdodD0iMzQ0cHgiIHdpZHRoPSIxNjZweCIgdmVyc2lvbj0iMS4xIj48ZGVmcy8+PGc+PHJlY3Qgc3Ryb2tlLXdpZHRoPSIyIiBzdHJva2U9IiM0MDQwZmYiIGZpbGw9IiM5OWZmZmYiIGhlaWdodD0iMTMwIiB3aWR0aD0iMTI5IiB5PSIxIiB4PSIxIi8+PGcgdHJhbnNmb3JtPSJ0cmFuc2xhdGUoLTAuNSAtMC41KSI+PHN3aXRjaD48dGV4dCBmb250LXdlaWdodD0iYm9sZCIgdGV4dC1hbmNob3I9Im1pZGRsZSIgZm9udC1zaXplPSIxMnB4IiBmb250LWZhbWlseT0iSGVsdmV0aWNhIiBmaWxsPSIjMDAwMDAwIiB5PSIyMCIgeD0iNjYiPkdlbmVyaWMgVGVudGFjbGU8L3RleHQ+PC9zd2l0Y2g+PC9nPjxyZWN0IHN0cm9rZS13aWR0aD0iMiIgc3Ryb2tlPSIjMDA4ODAwIiBmaWxsPSIjZDVlOGQ0IiBoZWlnaHQ9IjIxMCIgd2lkdGg9IjEyOSIgeT0iMTMzIiB4PSIxIi8+PHJlY3Qgc3Ryb2tlPSJub25lIiBmaWxsPSIjZmZlNmNjIiBoZWlnaHQ9IjE4MCIgd2lkdGg9IjcwIiB5PSI0MSIgeD0iOTQiLz48ZyB0cmFuc2Zvcm09InRyYW5zbGF0ZSgtMC41IC0wLjUpIj48c3dpdGNoPjx0ZXh0IHRleHQtYW5jaG9yPSJtaWRkbGUiIGZvbnQtc2l6ZT0iMTJweCIgZm9udC1mYW1pbHk9IkhlbHZldGljYSIgZmlsbD0iI0QwODAwMCIgeT0iNjAiIHg9IjEyOSI+SW5rYnVzPC90ZXh0Pjwvc3dpdGNoPjwvZz48cGF0aCBzdHJva2UtbWl0ZXJsaW1pdD0iMTAiIHN0cm9rZT0iIzAwMDAwMCIgZmlsbD0ibm9uZSIgZD0iTSAxMDUuNTYgNzEuNTUgTCAxNjIgNzEiLz48ZyB0cmFuc2Zvcm09InRyYW5zbGF0ZSgtMC41IC0wLjUpIj48c3dpdGNoPjx0ZXh0IHRleHQtYW5jaG9yPSJtaWRkbGUiIGZvbnQtc2l6ZT0iMTFweCIgZm9udC1mYW1pbHk9IkhlbHZldGljYSIgZmlsbD0iIzAwMDAwMCIgeT0iODIiIHg9IjEzNCI+STJDPC90ZXh0Pjwvc3dpdGNoPjwvZz48cGF0aCBzdHJva2UtbWl0ZXJsaW1pdD0iMTAiIHN0cm9rZT0iIzAwMDAwMCIgZmlsbD0ibm9uZSIgZD0iTSAxMDMgMTAzLjU4IEwgMTE0LjggMTAzLjU4IE0gMTUwLjIgMTAzLjU4IEwgMTYyIDEwMy41OCBNIDExOS41MiAxMDIuOCBMIDE0Ny44NCA5MSIvPjxlbGxpcHNlIHN0cm9rZT0iIzAwMDAwMCIgZmlsbD0icmdiKDI1NSwgMjU1LCAyNTUpIiByeT0iMi4zNTk1IiByeD0iMi4zNiIgY3k9IjEwMy41OCIgY3g9IjE0Ny44NCIvPjxlbGxpcHNlIHN0cm9rZT0iIzAwMDAwMCIgZmlsbD0icmdiKDI1NSwgMjU1LCAyNTUpIiByeT0iMi4zNTk1IiByeD0iMi4zNiIgY3k9IjEwMy41OCIgY3g9IjExNy4xNiIvPjxnIGZvbnQtc2l6ZT0iMTJweCIgdGV4dC1hbmNob3I9Im1pZGRsZSIgZm9udC1mYW1pbHk9IkhlbHZldGljYSIgZmlsbD0iIzAwMDAwMCI+PHRleHQgeT0iMTE3LjM3IiB4PSIxMzIiPlVTQjwvdGV4dD48L2c+PHBhdGggc3Ryb2tlLW1pdGVybGltaXQ9IjEwIiBzdHJva2U9IiMwMDAwMDAiIGZpbGw9Im5vbmUiIGQ9Ik0gMTAzIDE1NS41OCBMIDExNC44IDE1NS41OCBNIDE1MC4yIDE1NS41OCBMIDE2MiAxNTUuNTggTSAxMTkuNTIgMTU0LjggTCAxNDcuODQgMTQzIi8+PGVsbGlwc2Ugc3Ryb2tlPSIjMDAwMDAwIiBmaWxsPSJyZ2IoMjU1LCAyNTUsIDI1NSkiIHJ5PSIyLjM1OTUiIHJ4PSIyLjM2IiBjeT0iMTU1LjU4IiBjeD0iMTQ3Ljg0Ii8+PGVsbGlwc2Ugc3Ryb2tlPSIjMDAwMDAwIiBmaWxsPSJyZ2IoMjU1LCAyNTUsIDI1NSkiIHJ5PSIyLjM1OTUiIHJ4PSIyLjM2IiBjeT0iMTU1LjU4IiBjeD0iMTE3LjE2Ii8+PGcgZm9udC1zaXplPSIxMnB4IiB0ZXh0LWFuY2hvcj0ibWlkZGxlIiBmb250LWZhbWlseT0iSGVsdmV0aWNhIiBmaWxsPSIjMDAwMDAwIj48dGV4dCB5PSIxNjkuMzciIHg9IjEzMiI+VVNCLCA1VjwvdGV4dD48L2c+PHBhdGggc3Ryb2tlLW1pdGVybGltaXQ9IjEwIiBzdHJva2U9IiMwMDAwMDAiIGZpbGw9Im5vbmUiIGQ9Ik0gMTAzIDE5NS41OCBMIDExNC44IDE5NS41OCBNIDE1MC4yIDE5NS41OCBMIDE2MiAxOTUuNTggTSAxMTkuNTIgMTk0LjggTCAxNDcuODQgMTgzIi8+PGVsbGlwc2Ugc3Ryb2tlPSIjMDAwMDAwIiBmaWxsPSJyZ2IoMjU1LCAyNTUsIDI1NSkiIHJ5PSIyLjM1OTUiIHJ4PSIyLjM2IiBjeT0iMTk1LjU4IiBjeD0iMTQ3Ljg0Ii8+PGVsbGlwc2Ugc3Ryb2tlPSIjMDAwMDAwIiBmaWxsPSJyZ2IoMjU1LCAyNTUsIDI1NSkiIHJ5PSIyLjM1OTUiIHJ4PSIyLjM2IiBjeT0iMTk1LjU4IiBjeD0iMTE3LjE2Ii8+PGcgZm9udC1zaXplPSIxMnB4IiB0ZXh0LWFuY2hvcj0ibWlkZGxlIiBmb250LWZhbWlseT0iSGVsdmV0aWNhIiBmaWxsPSIjMDAwMDAwIj48dGV4dCB5PSIyMDkuMzciIHg9IjEzMiI+SU88L3RleHQ+PC9nPjxwYXRoIHN0cm9rZS1taXRlcmxpbWl0PSIxMCIgc3Ryb2tlPSIjMDAwMDAwIiBmaWxsPSJub25lIiBkPSJNIDE4LjkgMTEzLjU4IEwgMzAuNyAxMTMuNTggTSA2Ni4xIDExMy41OCBMIDc3LjkgMTEzLjU4IE0gMzUuNDIgMTEyLjggTCA2My43NCAxMDEiLz48ZWxsaXBzZSBzdHJva2U9IiMwMDAwMDAiIGZpbGw9InJnYigyNTUsIDI1NSwgMjU1KSIgcnk9IjIuMzU5NSIgcng9IjIuMzYiIGN5PSIxMTMuNTgiIGN4PSI2My43NCIvPjxlbGxpcHNlIHN0cm9rZT0iIzAwMDAwMCIgZmlsbD0icmdiKDI1NSwgMjU1LCAyNTUpIiByeT0iMi4zNTk1IiByeD0iMi4zNiIgY3k9IjExMy41OCIgY3g9IjMzLjA2Ii8+PGcgZm9udC1zaXplPSIxMnB4IiB0ZXh0LWFuY2hvcj0ibWlkZGxlIiBmb250LWZhbWlseT0iSGVsdmV0aWNhIiBmaWxsPSIjMDAwMDAwIj48dGV4dCB5PSIxMjcuMzciIHg9IjQ3LjkiPkJvb3QgVFA8L3RleHQ+PC9nPjxwYXRoIHN0cm9rZS1kYXNoYXJyYXk9IjIgNiIgc3Ryb2tlLW1pdGVybGltaXQ9IjEwIiBzdHJva2Utd2lkdGg9IjIiIHN0cm9rZS1vcGFjaXR5PSIwIiBzdHJva2U9IiNmZjAwMDAiIGZpbGw9Im5vbmUiIGQ9Ik0gNDEgMTQxIEwgOTEgOTEiLz48cmVjdCBzdHJva2U9Im5vbmUiIGZpbGw9Im5vbmUiIGhlaWdodD0iNDQuOCIgd2lkdGg9IjQ0LjgiIHk9IjQxIiB4PSIzMy4xIi8+PHBhdGggc3Ryb2tlPSJub25lIiBmaWxsPSIjNDQ5NWQxIiBkPSJNIDYyLjMyIDcyLjY5IEMgNjAuNzcgNzIuNjkgNTkuNjYgNzEuNDYgNTkuNjYgNzAuMDYgQyA1OS42NiA2OC45NiA2MC42MiA2Ny41MyA2Mi4zMiA2Ny41MyBDIDYzLjU0IDY3LjUzIDY0LjgyIDY4LjQ1IDY0LjgyIDcwLjA2IEMgNjQuODIgNzEuNDYgNjMuNzggNzIuNjkgNjIuMzIgNzIuNjkgTCA2Mi4zMiA3Mi42OSBaIE0gNjcuNzIgNzUuNjIgTCA2Ny43MiA1MS4wOCBMIDQzLjU3IDUxLjA4IEwgNDMuNTcgNzUuNjIgTCA2Ny43MiA3NS42MiBaIE0gNDIuOCA3OC4zOSBDIDQxLjc2IDc4LjM5IDQwLjggNzcuNzEgNDAuOCA3Ni40MSBMIDQwLjggNTAuMzEgQyA0MC44IDQ4Ljg5IDQxLjkgNDguMzEgNDIuNzYgNDguMzEgTCA2OC41IDQ4LjMxIEMgNjkuNjkgNDguMzEgNzAuNDcgNDkuMSA3MC40NyA1MC4zMyBMIDcwLjQ3IDc2LjI3IEMgNzAuNDkgNzcuNiA2OS43MiA3OC4zOSA2OC4zOSA3OC4zOSBMIDQyLjggNzguMzkgWiBNIDcyLjQ4IDc1LjQxIEwgNzIuNDggNzIuNzcgTCA3Ny45IDcyLjc3IEwgNzcuOSA3NS40MSBMIDcyLjQ4IDc1LjQxIFogTSA3Mi40OCA3MC4xMSBMIDcyLjQ4IDY3LjQ1IEwgNzcuOSA2Ny40NSBMIDc3LjkgNzAuMTEgTCA3Mi40OCA3MC4xMSBaIE0gNzIuNDggNjQuOTggTCA3Mi40OCA2Mi40IEwgNzcuOSA2Mi40IEwgNzcuOSA2NC45OCBMIDcyLjQ4IDY0Ljk4IFogTSA3Mi40OCA1OS45MSBMIDcyLjQ4IDU3LjI3IEwgNzcuOSA1Ny4yNyBMIDc3LjkgNTkuOTEgTCA3Mi40OCA1OS45MSBaIE0gNzIuNDggNTQuNjEgTCA3Mi40OCA1MS45NiBMIDc3LjkgNTEuOTYgTCA3Ny45IDU0LjYxIEwgNzIuNDggNTQuNjEgWiBNIDMzLjEgNTQuNjEgTCAzMy4xIDUxLjk2IEwgMzguNTUgNTEuOTYgTCAzOC41NSA1NC42MSBMIDMzLjEgNTQuNjEgWiBNIDMzLjEgNTkuOTEgTCAzMy4xIDU3LjI3IEwgMzguNTUgNTcuMjcgTCAzOC41NSA1OS45MSBMIDMzLjEgNTkuOTEgWiBNIDMzLjEgNjQuOTggTCAzMy4xIDYyLjQgTCAzOC41NSA2Mi40IEwgMzguNTUgNjQuOTggTCAzMy4xIDY0Ljk4IFogTSAzMy4xIDcwLjExIEwgMzMuMSA2Ny40NSBMIDM4LjU1IDY3LjQ1IEwgMzguNTUgNzAuMTEgTCAzMy4xIDcwLjExIFogTSAzMy4xIDc1LjQxIEwgMzMuMSA3Mi43NyBMIDM4LjU1IDcyLjc3IEwgMzguNTUgNzUuNDEgTCAzMy4xIDc1LjQxIFogTSA0NC4wNyA0Ni40NSBMIDQ0LjA3IDQxIEwgNDYuNyA0MSBMIDQ2LjcgNDYuNDUgTCA0NC4wNyA0Ni40NSBaIE0gNDkuMzQgNDYuNDUgTCA0OS4zNCA0MSBMIDUxLjk5IDQxIEwgNTEuOTkgNDYuNDUgTCA0OS4zNCA0Ni40NSBaIE0gNTQuNDQgNDYuNDUgTCA1NC40NCA0MSBMIDU3LjA1IDQxIEwgNTcuMDUgNDYuNDUgTCA1NC40NCA0Ni40NSBaIE0gNTkuNSA0Ni40NSBMIDU5LjUgNDEgTCA2Mi4xMiA0MSBMIDYyLjEyIDQ2LjQ1IEwgNTkuNSA0Ni40NSBaIE0gNjQuNzUgNDYuNDUgTCA2NC43NSA0MSBMIDY3LjQgNDEgTCA2Ny40IDQ2LjQ1IEwgNjQuNzUgNDYuNDUgWiBNIDY0Ljc1IDg1LjggTCA2NC43NSA4MC4yOSBMIDY3LjQgODAuMjkgTCA2Ny40IDg1LjggTCA2NC43NSA4NS44IFogTSA1OS41IDg1LjggTCA1OS41IDgwLjI5IEwgNjIuMTIgODAuMjkgTCA2Mi4xMiA4NS44IEwgNTkuNSA4NS44IFogTSA1NC40NCA4NS44IEwgNTQuNDQgODAuMjkgTCA1Ny4wNSA4MC4yOSBMIDU3LjA1IDg1LjggTCA1NC40NCA4NS44IFogTSA0OS4zNCA4NS44IEwgNDkuMzQgODAuMjkgTCA1MS45OSA4MC4yOSBMIDUxLjk5IDg1LjggTCA0OS4zNCA4NS44IFogTSA0NC4wNyA4NS44IEwgNDQuMDcgODAuMjkgTCA0Ni43IDgwLjI5IEwgNDYuNyA4NS44IEwgNDQuMDcgODUuOCBaIi8+PHJlY3Qgc3Ryb2tlPSJub25lIiBmaWxsPSJub25lIiBoZWlnaHQ9IjgwIiB3aWR0aD0iMjAiIHk9IjI2LjczIiB4PSIxIi8+PGcgdHJhbnNmb3JtPSJ0cmFuc2xhdGUoLTAuNSAtMC41KXJvdGF0ZSgtOTAgMTEgNjYuNzMwMDAwMDAwMDAwMDIpIj48c3dpdGNoPjx0ZXh0IHRleHQtYW5jaG9yPSJtaWRkbGUiIGZvbnQtc2l6ZT0iMTJweCIgZm9udC1mYW1pbHk9IkhlbHZldGljYSIgZmlsbD0iIzQwNDBGRiIgeT0iNzAiIHg9IjExIj5JbmZyYXN0cnVjdHVyZTwvdGV4dD48L3N3aXRjaD48L2c+PHJlY3Qgc3Ryb2tlPSJub25lIiBmaWxsPSJub25lIiBoZWlnaHQ9IjExMi4yNyIgd2lkdGg9IjIwIiB5PSIxMzQuNzMiIHg9IjIiLz48ZyB0cmFuc2Zvcm09InRyYW5zbGF0ZSgtMC41IC0wLjUpcm90YXRlKC05MCAxMiAxOTAuODY1KSI+PHN3aXRjaD48dGV4dCB0ZXh0LWFuY2hvcj0ibWlkZGxlIiBmb250LXNpemU9IjEycHgiIGZvbnQtZmFtaWx5PSJIZWx2ZXRpY2EiIGZpbGw9IiMwMDg4MDAiIHk9IjE5NCIgeD0iMTIiPlRQICh0ZXN0IHBhcnRpY2lwYW4uLi48L3RleHQ+PC9zd2l0Y2g+PC9nPjxwYXRoIHN0cm9rZS1taXRlcmxpbWl0PSIxMCIgc3Ryb2tlLXdpZHRoPSIyIiBzdHJva2U9IiM0MDQwZmYiIGZpbGw9Im5vbmUiIGQ9Ik0gOTQgMTMxIEwgMTY0IDEzMSIvPjxwYXRoIHN0cm9rZS1taXRlcmxpbWl0PSIxMCIgc3Ryb2tlLXdpZHRoPSIyIiBzdHJva2U9IiMwMDg4MDAiIGZpbGw9Im5vbmUiIGQ9Ik0gOTQgMTMzIEwgMTY0IDEzMyIvPjwvZz48c3dpdGNoPjxnLz48YSB0YXJnZXQ9Il9ibGFuayIgeGxpbms6aHJlZj0iaHR0cHM6Ly93d3cuZGlhZ3JhbXMubmV0L2RvYy9mYXEvc3ZnLWV4cG9ydC10ZXh0LXByb2JsZW1zIiB0cmFuc2Zvcm09InRyYW5zbGF0ZSgwLC01KSI+PHRleHQgeT0iMTAwJSIgeD0iNTAlIiBmb250LXNpemU9IjEwcHgiIHRleHQtYW5jaG9yPSJtaWRkbGUiPlRleHQgaXMgbm90IFNWRyAtIGNhbm5vdCBkaXNwbGF5PC90ZXh0PjwvYT48L3N3aXRjaD48L3N2Zz4=;" parent="1" vertex="1">
                    <mxGeometry x="190" y="500" width="166" height="344" as="geometry"/>
                </mxCell>
                <mxCell id="QVaBI0Wi_gaqylhbhUQJ-3" value="TP I2C eeprom" style="shape=image;imageAspect=0;aspect=fixed;verticalLabelPosition=bottom;verticalAlign=top;strokeColor=#008800;fontColor=#000000;fillColor=#0000FF;image=data:image/svg+xml,PHN2ZyB4bWxuczp4bGluaz0iaHR0cDovL3d3dy53My5vcmcvMTk5OS94bGluayIgeG1sbnM9Imh0dHA6Ly93d3cudzMub3JnLzIwMDAvc3ZnIiBjb250ZW50PSImbHQ7bXhmaWxlJmd0OyZsdDtkaWFncmFtIGlkPSZxdW90Ozh5SzlSM3p2VDhzUldjaEdUSWlKJnF1b3Q7IG5hbWU9JnF1b3Q7Z2VuZXJpYy10ZW50YWNsZSZxdW90OyZndDs3WmxiYzZNMkZNYy9qV2ZhaHpEaVpwdkh0Uk5uTTlOT1BYVjNOMzFVUUlBYVFCNGgzL2JUVndKeEVaSVRaME15M1U3OGtFRi9kRUhuZHlTZG8wemNaWDY4cFhDYi9rNGlsRTBjRUIwbjd2WEVjWHpnOGI5Q09OV0NFOHhxSWFFNHFpVzdFemI0TzVJaWtPb09SNmhVS2pKQ01vYTNxaGlTb2tBaFV6UklLVG1vMVdLU3FhTnVZWUkwWVJQQ1RGZS80WWlsdFRwM1pwMytHZUVrYlVhMnAwSDlKb2ROWlRtVE1vVVJPZlFrOTJiaUxpa2hySDdLajB1VUNkczFkcW5icmM2OGJUK01vb0pkMHNDcEcreGh0cE56dTBVRm9qams0bCs4RHhqeU9kZGZ5azdOOUNuWkZSRVNQWUNKdXppa21LSE5Gb2JpN1lIejVscks4b3lYYlA2NFI1UmhicnBQR1U0S3JqRWlLcFNNa3NmV2VIemFpeGhuMlVhT1VaSk1mR0NsTFVsR2FEV3VHd1FyL210Yjk5NTR3QVBWbTVnVXJLZUQ2aWYxcG5lRGthUWt2aFVkZTVJMDJpMGlPV0wweEt2SXQ0NG5BVW9QRG1UeDBMbUQ3VWpvYWQ4VlhGa1JTaGRNMnE0N1N2eEJnakpEdTZPYjVaL3c2K3FmMitNM0hDL1M1YzNuK3lzNzBGRCtaOEJGUHBwSG5na2NBUFA1T1VBYURRT3ppd0cxcnY0Y29YYVRHWitRdnRqdWlzZUhYZms2VGdOYnh6R2FocUZtNjRJVVNMUWpGSC9ucG9aUFUrN1RBUHF5dWdiemVsbU5BTXAxWFFWVXUwSjZvR2JBc0pMbUkzRHlkQ0xPVXNPQml1aVRPRFY2WnV6TXJ5NElvZkNKMDlPOXNKd1ZCTk5HK0xzUzdNQnZoT3VqTkc1ZE92VkxhNzRGODhrZ0trVkNXVW9TVXJUWU12aUFzZ1VNSDVQS1Z3YVV6KzJDaHVVSCtpQU5XeUtLbEtQd0xNWXJZQUVicUNpdlp2cVNBNUlhUlJsa2VLOGVxQ2FVY3NRMXdmekxPcS94UE11ZnFvNHpCWmJ2cXgyVlpFZERKTnYyajhGQmR4NndMZEQvYVYyci9USklFOFNlNkxlcFNPSzRSRXFkeWlWYisxM2twYjVoWitjZjZObzF1ZmJ4eTJhaCtTNFBNTGJpTVQ4bUloU3pVTVlESWlwV3ZId2tWemtLVTFoVVVvbUxKRU9iQTJZaEI3YUE1YllPbjJKOEZOdlJBbVgxdXcyRFRQVEtwL2Vlem5qNStleDZqa3B3cnU4cXZ1bDg5cTJaKy9wOVpmb1NZcnczNEgvOUlHY201N2o2d2YyRzVHWVhrcnY3NHdQWUdXQ3pkd1ZtRExYbUYxSmNpRVNMWnpyci94SE0xNFhOL3N3SzFKM1RrTnE4Tjg0TFVoczlSb3RnbVZZeHRLMEdiRUpmUThhRHE2TE9OWGpVWXNwcm5xYWpVVml0SkFYQ0kzWE1tbkRPR0VWZFJLUnZiMFA4NjQ4VFNEbnpRWjQwVEZBdkRhRmNWKzFJaTgvUHhFdy9FQStac3l2N2VTZlppc0VSdmRsejI1ZE4vTjdjd0lDK3p3QlRrRDljb0dyaTVYbUIzOFhtYTFKaWhvbHdzUkFWVlNUZjVscS9EU284RU1aSWZqWVpnN0xVOWtOMkxNTUYvNXptZGd2VTgxQTJyRDFDTUxmQzdXNmtqV0htV0xZSzJKQ284YWg4cnJ0cXA0NmZVK3ZuOVYwUlU4aUI3VUsyby9ybEZUY0JleUZjS1drY2hyaHlIRVZpR0dQR3J1YjBTaDV1eUxEYkM2MHgwQTJ1UXV6ZVZ0MWo1eGcybVRGeWJETTMvWVFXaHpENGhhR1MxYlBqcHNWYldMQmZmMUtFN2RYV0tBalZ0Y2UzMjBzUjJyWmpOVkh0NkJnZDkwZE9adFdPTHp4bjI1Vmh1SWxVQWF4VzhwYXF2WkJwYjJmcXk1aG5yMktPbU4zM25udXRlS2xySkFvL3kzay92RzVyZmVibFZ5YlBkUFRHNTczaDd1NnRYYTlkMFIrdU40N3JPV081bmpPUzYvRmk5NyszdW5yM0QwejM1bDg9Jmx0Oy9kaWFncmFtJmd0OyZsdDtkaWFncmFtIGlkPSZxdW90O3gwRVhxaXNaeElBQUZKaVM3Q2gxJnF1b3Q7IG5hbWU9JnF1b3Q7cG93ZXIgYW5kIHVzYiZxdW90OyZndDs3VnhaZDV2SUV2NDFlWnc1ckk3MUtJbmRBbGtzamVpWE9VQXpBdEVza1pBRS9QcGJhTEZsTzVuTWt0eTU1MXdtazJOMzBWMWRYVjlWZGVrN0NwLzRlZEdxdTdCT3pZb2s5QlBIa1BZVEwzM2lPUGJoNFRQOEdDVGRSU0pNaEl0Z3M4dklkZEtyd01uNjVDcGtydEpEUnBMOW00bE5WZEVtcTk4SzQ2b3NrN2g1SXd0M3UrcjBkdHJ2RlgyN2F4MXVrZzhDSnc3cFI2bWZrU2E5U0IrNXo2OXlMY2syNlcxbjltRnllVktFdDhuWGsrelRrRlNuT3hFdmYrTG51NnBxTHI4VjdUeWhnL051ZnJtc1U3N3g5TVd3WFZJMmYyWkJtZlJQQ3ovR3A0ZEhOK2gvbHpiT3dmM2xxdVVZMHNQMXdIcjUreTRFa1F0cXd4amNjREcrNlc0ZWdYUFV3NjlaY1hiZDdQeHp1cTh2M21kQUV0NEd2MmR0QXJ2UGpzbXV5Y0NuaXpCSzZITzF6NXFzS3VGNVZEVk5WZHhObU5Kc016eG9xdnFtR1VZa2JNSlAvUFF5NUpUOWNmT0ptN1VGSEc3K3JGa2M3bVpDNUxlSHVLK0ZTS1dIc0dleVVMT1pXS3FPQzU3d3BCTjVzeE9QY1JFZlRUY1hsODdrTXEvVE40bks3cVBTbk9oRnloQnQrckRvSnJBaVBwRGVQRVM4VVM1Ni9XUkswMlBNNDFMUFp0dUlFeG5zaTh5em94ZVJ0dm9jcmRNaTlGdHFGSVJaZG5oUHBDWVBmYVdNQzZYUlZaby9PN2dsL29SWjlxbm85TlF4K1pwRFV0cDdsR3hEbVhpT1Q1K01VbUVqZnZWWlY4VTA4cjNKYll3NWRNQnJvdzQ2OXJ4bjRGdDdmTlBYNFpKSWU5NHZqQ0xZb3A0d3lNTFpSQXNsTzFzaG1RdlptUnlVc3k4TEZsZUlvOGdxaklCSVU4Yno2blZJOVpOZnprUkhpam1UczdTbGxENUhrdUU1dWNDWjN1VEp6c1U5M3VvOTNvTHUzdFlkemQ2amRSMmFCV1VYVFBPUTVGUzF1RW00bEN3OUxvU09jUFVjZTZnZ3ZjWEhPZklpM3JJZExsMDdXL1JFV1BJbFpOb0ZwbFR4VmR4R0pWcDd6cjUxWFVWMVN2cmdxM0JXRCsxQ21TNWRadUxFQ25GWFc2c0lFRDY0eW9hekpIdnRlc2JLNCtxVjAzdTdxTGYyWkkwZTBEcnZWNjdNeGZObVpsTVNrSHlDUTJSbk1iTHFCVXNjaTJ1NjJHOVlwS1dXazZkbVdEVFlwQmFLQ3NURWEzdTM4Z1RlMFhSbTZUVU1XVmVuUko0MGljeVdXTFlQcnF6VUZtTzRUNnpIUC9WV0NMcWtGYUpWNURWZndBZXlYNGhmSXQ5bzhUYm9WbHRhSkw3ZU8ydmloeVZaQlhtK2kyUWsyQnBxWGJiV2tEUXJneTExSERZTkhNMmFZM1Vqckh3RitVWEtXbm5UbTNKVHhwcXk5aW5TWXE0OVdDb3VMZFhRZlNVVy9DMUtvNjJGUW43V3V5WEVzMHkyc2QrbXBBUjloY0hacVBiRG5tcVJaaGNScWxvL3AwZVA4emlUcjdpSXIzWnVRVzJUeG1EanByWFgxc0h1OGN6MDJUa3FHaHF3ZElmejFjbjI5aWVQTlhwdm5SOVhhM0lLR1lzbk1qNWFhNElXUFdZYzF1c3NsZzduM0dISWtFUTFuczB0bGhERHRMWmtNZ0duV0tFYmRLSEhuQncvRnNJMThpeVhsa2hCeDFYZUNvNnJpd2paczZqSFhGaXNCTHNrTzQremVWZVp0aEdYdWc1VFUrTEZUTnlucmVWYUIwK2gxUFhJZ2JCb3NlS3RoVU1SNjFOTHNiY2tNOWY1RHJPNmdGUmpGUldUblZsZ1BaYmIzT1Rvbm5pTTZHU1RKOHpMYkFBeDRrbHBsNVJFTlh0UzJxNWR4RnE2anIzSDFsV0RrNTJuVXV3YW1LakdqRWhJQ3Z6cTlNUmFodThTYmJrRzMzcXBoNVNxOTdWWkUvdjEzbGRaSDdQQnlTd0QzdVp0ZWFraUg4NVpJRGw5TXZuWkhrdkU5NUhSV3V1Wmh5aWFQM0Uxalp3OUUybVV0YmJXUFBMdFZlUWlaOVdudmVubGJiUld3SlpBOEF0RVNUK3ppS2JvbGlmNmNCN1BacXcrWEVPTjBJeW5PTGM0MjBOcndyU2F5MERPNUdrR3VVbFJYa3VJWXRPajFnUDRkdTZnMVlsd29tdjN5akp3NWQ1WDdRQ2lxQThRYXBHUzhrRkJIMkQrbkt3TjZxNnJQc25aTDBraEM0bWlMS0pTd1FteStWQjk3THdDNFlpcGo2WUttTTBmT1YrbWdpTkJydk5ZRDJWWkpJWGUyUjUxU1VHcHVWWENpT1o4dk0yRmxXZjNnUFVLc2xZa2ZNNWJXcHBqSldodE9YMHc4MXBjYXFTSE9naTFjWC9FS2sweGI2U1JjNjVmNXhyNktwdlZXR0tLZUkyT1VFY0ZVMFpCN05QZUwxTW9BRkF2Q3VwYWpGV1pMelZ3ZGdoOGxyN1VXTGhIQ0ljNlhWVU9lRDVqWTA2LzZ0b1hHT3BwWE5oUGJyNWlISjlvS3gvelVJY3RyRTdXeUxjMTAyOXpseE9oNXRlR3h5RFpsMlpiVXpQc0p3NDdzYTlZVUxQRU9NOVBpVVJaRjgxa0s3ZU1tRmRNck1TdFZjNE13cVdRUzZ3V0lpUHdtRmF5QzFFajhnU3lDYzJzWEZFVENZbXhhNitqUWpFYzZ2VVFielBzaVpJcjQ4N3hKaVh1eWN4bGdzNHVXTVdtdFJqelJFMDB1YlB6K3BqNE5nL3g1VVA5NDEyWlFIRFdTNU5oeE1CSEduSVZBVEgxVTdLbEJ1aG1FOVVDSE0yZDViTlNtRFdBVzkzNUtwM0Y2aVNJT0hKWU1iSG9zZE0rb2VuQ2xha011YjJ6ZTV1MU9ScTZkTnI2TXZFWG5IVXdpd295SjRaYlJnZDlKODZYTU9NaDNQanp4OTJLbzEvTWRjMlRMZFZEeGk2ZlhlYU00NEt6NjhBblhlQXpaMzhiUlFzWVFWMVZjUjJwM2xrR2R5Z1grb2hmRlJNQjd0REduQXVzUG1kT2k2MjNNZDFWcDB0bWEyYjZKbFJSamJsMHVHZDcwelZPeVZ6ZkVJN21STjFNOUszTW1PVk1HSFRCL2RpSC91UUE4OXJGVnM2ZXQyMk9mZHd2ZXVFUnc5KzRRRnN5bi9WRU00NGg1eld2T3ZSTTF5d21oanFDWFNiVGV6dTMxQldEWVI5YzBIMGtEYkpjeEFYOCtXRFBGTmFTR210Mk5leHJTY000SCt5Q24yZjdzdlArM1F6MEs0ZVl3OUI3TUJPOXRNRTNZaCtwQ29PZHpmM1phMzBMdHZLa0pxcFZ3UmtZdkU0WlhiTnBvcTBhV0xNTjFVbjM3QmhONk5zNStETFRWWHlNeWxVVGMvUmhzUC9tSTF4TURtVE9GcEFYZFRUWWxLYzAwakFsS3QwR3p2M1pwa05mY3pKaFRUS3MzMDZ2dHNldHZoVTE2RGRvWE5DdER0RVlsWFlhY0MxOW5rL09kajF2VDhkWFcwL0hzNS9oVE9HZG55T2Z3bHhqSDRJZFJCcnNtNzd6OSt2K041dWdwaC93WUNQODdqcFR3WnBQbWFVek0zVUo4SjRMekhrOC9IVDBJL2lvQlArYy9RbG43aUxRQ1h1blVXbnRnN1ZObjY0eHRYQ25CMmdBaHJqb0FYdTRyNGJlOGZuaTJRMVJrUURlU3FQQ3FpSmVoeTZRcmJGcTc4OVdYRHc1VkdNNm9HeXV6eEZYREIzZ3dzZlFxZEg5NERsSFJYc0NYVVhvVytud0hMckJQY3pmbms4SGYwRW13cGhkZ3M3azdBbTVBdzhiWm01dVFsOHM0a0orWFBCbmV3Ykw1cE43TytlVEVpdy93WW1xRis4NWJCUENDZU9pclFjdm4yMERMOGE4M1VWY1E5L3RmYlhIT0lEZEZNYlFrUnFXTG0wZzB6YURod1JkUG0yV3JubFl6cWZDRUpITCtReWV5OTNTRWQ3TWdleHNYOGNNck5rY0xGZmZXSDBPYTg4b2RWWW1ES2h4eS9rWklScXBiUjFyRnYwZThuRkJzaWRKWnkwSDl0bDY3R0krN1N3WHNpS2JkZWZveklUZWNuUDJQSmF1WThqS2dCK3k3bW9UZE9jWC8rcmNZcnRoOU94eDhDQ2dBNzMrS2VhODczbW93NXhlM2UyKzE4OFc1UkMzeG9CZ3Q5aWE3TkwxaHJGd0hYUG5YY0hDcFFSeDVtNGdMNjNobVFpZWFNSENTNXgrSTFmL1JQVDlsVHkraSt1elJlN3FZUGJ4clNLMXBqUE1RTWlhdytlU0F5Nk45RDZmZjFZT205bTBOVjF2OE0zR25VOUZzeE1FaUpUV2N0NUgyb3Zza3UvTzNUcG5La0xlc3hkZHEvZlIxcHFTZWFtM2dHTzRudlhZZVRuRFJNL00weFhyb1diQ1BYU0NPbXlVUWJhNXcvZ1NkVTlnZDF3T0VhV0Q1enpST284MzEzRXdZQ3VlcysxaTF3M3IxdHdHaDZXMCtqZHQrQitJTjhnN0VUS0NoNHk0ZU1XRjI1Z2lkNVhOUEU4NkhjKzdTOExqZ292UEsyY3AzTU12T2JrWVlreEZIZVFxVkxmVkVMRkRidjZ4RHd2eEdCWERYUWp6YzZoSWtnNVZ5bnRmMWVCenhmUVdSNEJWZmhqaTZFVTJQSmZrdTNXdmxRMWlEVTUwbVhQRkdHU204Tit0TEMrVy9hdjE3YjBWU3pjNG1HNXc2M011dCtMYXFwUENHN0RyWWcxaTgwLzBMN2hRUU5iQy9vWU91UVA5SFBTUW5QeUs4UjN1cjMzUnVkZmlyRG5jQXQzTHJUcjBMWWJiZjRpMHl4MTZmNnVxOFpBbktkaVh3czFEaDlxMjVvdzkyTGtib3ZmQ0lkVVY5STRGMkZVUnpUN0YvUXVYOU1MdnhKMTR3T3NWZkthWmJCY2NUbU1IN3U0aWJzREdVOFFiNEkvTCtXT0k0YUNBMjNCdFpuL1lzMGpUL2NLOTlJS1hYSjFkY2wyYTBtdFdzZWI4YTczZjdIdjVQVlQraThZNmhrOU5FYi9hZUN6V29QdmN3Q2Y0QTFSdFJsZnRPb1pQczhFNmY5dVBwTy83dllFTGU5NE1aT0R3Lyt6S0lDYTdKbW0vU1UyeUw0Um4wYXBKVlNUTnJvTXAxd1g4bFNLOWNzU3NlQjJmWGhsWFZ1QXVzdlNPYmVYWnF6QzhzcnliRjlXdlJDajhjdVZDL3dJdnluM2dSZDFuR085cWpoR1lrUklkS2RHUkVoMHAwWkVTSFNuUmtSSWRLZEdSRWgwcDBaRVNIU25Sa1JJZEtkR1JFaDBwMFpFU0hTblJrUklkS2RGL1FvbXlrMytURTMySW5OOXN1UGY2S0t2M3JVcXF6S3krOGwzUk15ZXFjNkNPU1pKNlZ4VWpNem95b3lNek9qS2pJek02TXFNak16b3lveU16T2pLakl6TTZNcU1qTXpveW95TXpPaktqSXpNNk1xTWpNem95by8vb3k2TGkveHd6K3ZIYm9oK0owRHhwNHZSYm5HZGRaV1dUN09RaitHQXdqZ1haeS9zQ2hoVWszS2ZEelBNZ2JRcDZtOVRzcWp5WlY3VGFnYVNzeW9Ga3BlK1kwemdabFA5OWFqVzhqbDcwL0o1UmV0dnpFOGN6RFB2NEtGMU1Qck85UmJzWjNnYnhhOWdmZHNtdmNWWFVoMkhoUDhmK2w4ZTMyTDk4Yy9nTysxczQzRU12aUQ4SmVmNzd5Q2NsbVE0dm9uakY1NXY0Z1M4VmhZSC9YcDdjM2puQnZlUk9RajY4c09LNzN2dU9kMjZ5WFVMREpqdStWZjgxbDExM2VCNmk5ZzRjN2gwNE43MDNGZnZxc0l1VDY2cjdOMVc4VThTS0QrOVFmbWRMRSs0MlNmTkIwUm5CbDJQL2ZWREZId0xxUFhUZmh2bi9GOVNIaC84cXFKLy9ZbzMrc1NYNVhjVVVlRUdBbXZTVm0rQ24xKzdxME5Dc0JQdHU3OHRodmxLNGowZnlhMXdmZnN5Ri9mNmZkL0JmdWJEL0tJSi9lTkYrL0g0b2ZOZmIzdzZGRHg2L2k0MnZZL1RlK3drRlpIYkR2RjlwdGNuaTN6WmhrK3gvM1hkbG5PNnFzanJzZjl2dGY0TzBIb0wxaDdSVW45bTNDRDE4cGFWaXZnTFI0OCtDYURLVzROZjhFZmkzNkFpZi8xNEo1ajYvVmNROXZGUDBrMHN3Ky9FYkJQL0hxRDU4b3lyK2RWVGZLV0tZSDRRcURGOWZUM2FaL3ZxU04xNytEdz09Jmx0Oy9kaWFncmFtJmd0OyZsdDsvbXhmaWxlJmd0OyIgdmlld0JveD0iLTAuNSAtMC41IDE2NiAzNDQiIGhlaWdodD0iMzQ0cHgiIHdpZHRoPSIxNjZweCIgdmVyc2lvbj0iMS4xIj48ZGVmcy8+PGc+PHJlY3Qgc3Ryb2tlLXdpZHRoPSIyIiBzdHJva2U9IiM0MDQwZmYiIGZpbGw9IiM5OWZmZmYiIGhlaWdodD0iMTMwIiB3aWR0aD0iMTI5IiB5PSIxIiB4PSIxIi8+PGcgdHJhbnNmb3JtPSJ0cmFuc2xhdGUoLTAuNSAtMC41KSI+PHN3aXRjaD48dGV4dCBmb250LXdlaWdodD0iYm9sZCIgdGV4dC1hbmNob3I9Im1pZGRsZSIgZm9udC1zaXplPSIxMnB4IiBmb250LWZhbWlseT0iSGVsdmV0aWNhIiBmaWxsPSIjMDAwMDAwIiB5PSIyMCIgeD0iNjYiPkdlbmVyaWMgVGVudGFjbGU8L3RleHQ+PC9zd2l0Y2g+PC9nPjxyZWN0IHN0cm9rZS13aWR0aD0iMiIgc3Ryb2tlPSIjMDA4ODAwIiBmaWxsPSIjZDVlOGQ0IiBoZWlnaHQ9IjIxMCIgd2lkdGg9IjEyOSIgeT0iMTMzIiB4PSIxIi8+PHJlY3Qgc3Ryb2tlPSJub25lIiBmaWxsPSIjZmZlNmNjIiBoZWlnaHQ9IjE4MCIgd2lkdGg9IjcwIiB5PSI0MSIgeD0iOTQiLz48ZyB0cmFuc2Zvcm09InRyYW5zbGF0ZSgtMC41IC0wLjUpIj48c3dpdGNoPjx0ZXh0IHRleHQtYW5jaG9yPSJtaWRkbGUiIGZvbnQtc2l6ZT0iMTJweCIgZm9udC1mYW1pbHk9IkhlbHZldGljYSIgZmlsbD0iI0QwODAwMCIgeT0iNjAiIHg9IjEyOSI+SW5rYnVzPC90ZXh0Pjwvc3dpdGNoPjwvZz48cGF0aCBzdHJva2UtbWl0ZXJsaW1pdD0iMTAiIHN0cm9rZT0iIzAwMDAwMCIgZmlsbD0ibm9uZSIgZD0iTSAxMDUuNTYgNzEuNTUgTCAxNjIgNzEiLz48ZyB0cmFuc2Zvcm09InRyYW5zbGF0ZSgtMC41IC0wLjUpIj48c3dpdGNoPjx0ZXh0IHRleHQtYW5jaG9yPSJtaWRkbGUiIGZvbnQtc2l6ZT0iMTFweCIgZm9udC1mYW1pbHk9IkhlbHZldGljYSIgZmlsbD0iIzAwMDAwMCIgeT0iODIiIHg9IjEzNCI+STJDPC90ZXh0Pjwvc3dpdGNoPjwvZz48cGF0aCBzdHJva2UtbWl0ZXJsaW1pdD0iMTAiIHN0cm9rZT0iIzAwMDAwMCIgZmlsbD0ibm9uZSIgZD0iTSAxMDMgMTAzLjU4IEwgMTE0LjggMTAzLjU4IE0gMTUwLjIgMTAzLjU4IEwgMTYyIDEwMy41OCBNIDExOS41MiAxMDIuOCBMIDE0Ny44NCA5MSIvPjxlbGxpcHNlIHN0cm9rZT0iIzAwMDAwMCIgZmlsbD0icmdiKDI1NSwgMjU1LCAyNTUpIiByeT0iMi4zNTk1IiByeD0iMi4zNiIgY3k9IjEwMy41OCIgY3g9IjE0Ny44NCIvPjxlbGxpcHNlIHN0cm9rZT0iIzAwMDAwMCIgZmlsbD0icmdiKDI1NSwgMjU1LCAyNTUpIiByeT0iMi4zNTk1IiByeD0iMi4zNiIgY3k9IjEwMy41OCIgY3g9IjExNy4xNiIvPjxnIGZvbnQtc2l6ZT0iMTJweCIgdGV4dC1hbmNob3I9Im1pZGRsZSIgZm9udC1mYW1pbHk9IkhlbHZldGljYSIgZmlsbD0iIzAwMDAwMCI+PHRleHQgeT0iMTE3LjM3IiB4PSIxMzIiPlVTQjwvdGV4dD48L2c+PHBhdGggc3Ryb2tlLW1pdGVybGltaXQ9IjEwIiBzdHJva2U9IiMwMDAwMDAiIGZpbGw9Im5vbmUiIGQ9Ik0gMTAzIDE1NS41OCBMIDExNC44IDE1NS41OCBNIDE1MC4yIDE1NS41OCBMIDE2MiAxNTUuNTggTSAxMTkuNTIgMTU0LjggTCAxNDcuODQgMTQzIi8+PGVsbGlwc2Ugc3Ryb2tlPSIjMDAwMDAwIiBmaWxsPSJyZ2IoMjU1LCAyNTUsIDI1NSkiIHJ5PSIyLjM1OTUiIHJ4PSIyLjM2IiBjeT0iMTU1LjU4IiBjeD0iMTQ3Ljg0Ii8+PGVsbGlwc2Ugc3Ryb2tlPSIjMDAwMDAwIiBmaWxsPSJyZ2IoMjU1LCAyNTUsIDI1NSkiIHJ5PSIyLjM1OTUiIHJ4PSIyLjM2IiBjeT0iMTU1LjU4IiBjeD0iMTE3LjE2Ii8+PGcgZm9udC1zaXplPSIxMnB4IiB0ZXh0LWFuY2hvcj0ibWlkZGxlIiBmb250LWZhbWlseT0iSGVsdmV0aWNhIiBmaWxsPSIjMDAwMDAwIj48dGV4dCB5PSIxNjkuMzciIHg9IjEzMiI+VVNCLCA1VjwvdGV4dD48L2c+PHBhdGggc3Ryb2tlLW1pdGVybGltaXQ9IjEwIiBzdHJva2U9IiMwMDAwMDAiIGZpbGw9Im5vbmUiIGQ9Ik0gMTAzIDE5NS41OCBMIDExNC44IDE5NS41OCBNIDE1MC4yIDE5NS41OCBMIDE2MiAxOTUuNTggTSAxMTkuNTIgMTk0LjggTCAxNDcuODQgMTgzIi8+PGVsbGlwc2Ugc3Ryb2tlPSIjMDAwMDAwIiBmaWxsPSJyZ2IoMjU1LCAyNTUsIDI1NSkiIHJ5PSIyLjM1OTUiIHJ4PSIyLjM2IiBjeT0iMTk1LjU4IiBjeD0iMTQ3Ljg0Ii8+PGVsbGlwc2Ugc3Ryb2tlPSIjMDAwMDAwIiBmaWxsPSJyZ2IoMjU1LCAyNTUsIDI1NSkiIHJ5PSIyLjM1OTUiIHJ4PSIyLjM2IiBjeT0iMTk1LjU4IiBjeD0iMTE3LjE2Ii8+PGcgZm9udC1zaXplPSIxMnB4IiB0ZXh0LWFuY2hvcj0ibWlkZGxlIiBmb250LWZhbWlseT0iSGVsdmV0aWNhIiBmaWxsPSIjMDAwMDAwIj48dGV4dCB5PSIyMDkuMzciIHg9IjEzMiI+SU88L3RleHQ+PC9nPjxwYXRoIHN0cm9rZS1taXRlcmxpbWl0PSIxMCIgc3Ryb2tlPSIjMDAwMDAwIiBmaWxsPSJub25lIiBkPSJNIDE4LjkgMTEzLjU4IEwgMzAuNyAxMTMuNTggTSA2Ni4xIDExMy41OCBMIDc3LjkgMTEzLjU4IE0gMzUuNDIgMTEyLjggTCA2My43NCAxMDEiLz48ZWxsaXBzZSBzdHJva2U9IiMwMDAwMDAiIGZpbGw9InJnYigyNTUsIDI1NSwgMjU1KSIgcnk9IjIuMzU5NSIgcng9IjIuMzYiIGN5PSIxMTMuNTgiIGN4PSI2My43NCIvPjxlbGxpcHNlIHN0cm9rZT0iIzAwMDAwMCIgZmlsbD0icmdiKDI1NSwgMjU1LCAyNTUpIiByeT0iMi4zNTk1IiByeD0iMi4zNiIgY3k9IjExMy41OCIgY3g9IjMzLjA2Ii8+PGcgZm9udC1zaXplPSIxMnB4IiB0ZXh0LWFuY2hvcj0ibWlkZGxlIiBmb250LWZhbWlseT0iSGVsdmV0aWNhIiBmaWxsPSIjMDAwMDAwIj48dGV4dCB5PSIxMjcuMzciIHg9IjQ3LjkiPkJvb3QgVFA8L3RleHQ+PC9nPjxwYXRoIHN0cm9rZS1kYXNoYXJyYXk9IjIgNiIgc3Ryb2tlLW1pdGVybGltaXQ9IjEwIiBzdHJva2Utd2lkdGg9IjIiIHN0cm9rZS1vcGFjaXR5PSIwIiBzdHJva2U9IiNmZjAwMDAiIGZpbGw9Im5vbmUiIGQ9Ik0gNDEgMTQxIEwgOTEgOTEiLz48cmVjdCBzdHJva2U9Im5vbmUiIGZpbGw9Im5vbmUiIGhlaWdodD0iNDQuOCIgd2lkdGg9IjQ0LjgiIHk9IjQxIiB4PSIzMy4xIi8+PHBhdGggc3Ryb2tlPSJub25lIiBmaWxsPSIjNDQ5NWQxIiBkPSJNIDYyLjMyIDcyLjY5IEMgNjAuNzcgNzIuNjkgNTkuNjYgNzEuNDYgNTkuNjYgNzAuMDYgQyA1OS42NiA2OC45NiA2MC42MiA2Ny41MyA2Mi4zMiA2Ny41MyBDIDYzLjU0IDY3LjUzIDY0LjgyIDY4LjQ1IDY0LjgyIDcwLjA2IEMgNjQuODIgNzEuNDYgNjMuNzggNzIuNjkgNjIuMzIgNzIuNjkgTCA2Mi4zMiA3Mi42OSBaIE0gNjcuNzIgNzUuNjIgTCA2Ny43MiA1MS4wOCBMIDQzLjU3IDUxLjA4IEwgNDMuNTcgNzUuNjIgTCA2Ny43MiA3NS42MiBaIE0gNDIuOCA3OC4zOSBDIDQxLjc2IDc4LjM5IDQwLjggNzcuNzEgNDAuOCA3Ni40MSBMIDQwLjggNTAuMzEgQyA0MC44IDQ4Ljg5IDQxLjkgNDguMzEgNDIuNzYgNDguMzEgTCA2OC41IDQ4LjMxIEMgNjkuNjkgNDguMzEgNzAuNDcgNDkuMSA3MC40NyA1MC4zMyBMIDcwLjQ3IDc2LjI3IEMgNzAuNDkgNzcuNiA2OS43MiA3OC4zOSA2OC4zOSA3OC4zOSBMIDQyLjggNzguMzkgWiBNIDcyLjQ4IDc1LjQxIEwgNzIuNDggNzIuNzcgTCA3Ny45IDcyLjc3IEwgNzcuOSA3NS40MSBMIDcyLjQ4IDc1LjQxIFogTSA3Mi40OCA3MC4xMSBMIDcyLjQ4IDY3LjQ1IEwgNzcuOSA2Ny40NSBMIDc3LjkgNzAuMTEgTCA3Mi40OCA3MC4xMSBaIE0gNzIuNDggNjQuOTggTCA3Mi40OCA2Mi40IEwgNzcuOSA2Mi40IEwgNzcuOSA2NC45OCBMIDcyLjQ4IDY0Ljk4IFogTSA3Mi40OCA1OS45MSBMIDcyLjQ4IDU3LjI3IEwgNzcuOSA1Ny4yNyBMIDc3LjkgNTkuOTEgTCA3Mi40OCA1OS45MSBaIE0gNzIuNDggNTQuNjEgTCA3Mi40OCA1MS45NiBMIDc3LjkgNTEuOTYgTCA3Ny45IDU0LjYxIEwgNzIuNDggNTQuNjEgWiBNIDMzLjEgNTQuNjEgTCAzMy4xIDUxLjk2IEwgMzguNTUgNTEuOTYgTCAzOC41NSA1NC42MSBMIDMzLjEgNTQuNjEgWiBNIDMzLjEgNTkuOTEgTCAzMy4xIDU3LjI3IEwgMzguNTUgNTcuMjcgTCAzOC41NSA1OS45MSBMIDMzLjEgNTkuOTEgWiBNIDMzLjEgNjQuOTggTCAzMy4xIDYyLjQgTCAzOC41NSA2Mi40IEwgMzguNTUgNjQuOTggTCAzMy4xIDY0Ljk4IFogTSAzMy4xIDcwLjExIEwgMzMuMSA2Ny40NSBMIDM4LjU1IDY3LjQ1IEwgMzguNTUgNzAuMTEgTCAzMy4xIDcwLjExIFogTSAzMy4xIDc1LjQxIEwgMzMuMSA3Mi43NyBMIDM4LjU1IDcyLjc3IEwgMzguNTUgNzUuNDEgTCAzMy4xIDc1LjQxIFogTSA0NC4wNyA0Ni40NSBMIDQ0LjA3IDQxIEwgNDYuNyA0MSBMIDQ2LjcgNDYuNDUgTCA0NC4wNyA0Ni40NSBaIE0gNDkuMzQgNDYuNDUgTCA0OS4zNCA0MSBMIDUxLjk5IDQxIEwgNTEuOTkgNDYuNDUgTCA0OS4zNCA0Ni40NSBaIE0gNTQuNDQgNDYuNDUgTCA1NC40NCA0MSBMIDU3LjA1IDQxIEwgNTcuMDUgNDYuNDUgTCA1NC40NCA0Ni40NSBaIE0gNTkuNSA0Ni40NSBMIDU5LjUgNDEgTCA2Mi4xMiA0MSBMIDYyLjEyIDQ2LjQ1IEwgNTkuNSA0Ni40NSBaIE0gNjQuNzUgNDYuNDUgTCA2NC43NSA0MSBMIDY3LjQgNDEgTCA2Ny40IDQ2LjQ1IEwgNjQuNzUgNDYuNDUgWiBNIDY0Ljc1IDg1LjggTCA2NC43NSA4MC4yOSBMIDY3LjQgODAuMjkgTCA2Ny40IDg1LjggTCA2NC43NSA4NS44IFogTSA1OS41IDg1LjggTCA1OS41IDgwLjI5IEwgNjIuMTIgODAuMjkgTCA2Mi4xMiA4NS44IEwgNTkuNSA4NS44IFogTSA1NC40NCA4NS44IEwgNTQuNDQgODAuMjkgTCA1Ny4wNSA4MC4yOSBMIDU3LjA1IDg1LjggTCA1NC40NCA4NS44IFogTSA0OS4zNCA4NS44IEwgNDkuMzQgODAuMjkgTCA1MS45OSA4MC4yOSBMIDUxLjk5IDg1LjggTCA0OS4zNCA4NS44IFogTSA0NC4wNyA4NS44IEwgNDQuMDcgODAuMjkgTCA0Ni43IDgwLjI5IEwgNDYuNyA4NS44IEwgNDQuMDcgODUuOCBaIi8+PHJlY3Qgc3Ryb2tlPSJub25lIiBmaWxsPSJub25lIiBoZWlnaHQ9IjgwIiB3aWR0aD0iMjAiIHk9IjI2LjczIiB4PSIxIi8+PGcgdHJhbnNmb3JtPSJ0cmFuc2xhdGUoLTAuNSAtMC41KXJvdGF0ZSgtOTAgMTEgNjYuNzMwMDAwMDAwMDAwMDIpIj48c3dpdGNoPjx0ZXh0IHRleHQtYW5jaG9yPSJtaWRkbGUiIGZvbnQtc2l6ZT0iMTJweCIgZm9udC1mYW1pbHk9IkhlbHZldGljYSIgZmlsbD0iIzQwNDBGRiIgeT0iNzAiIHg9IjExIj5JbmZyYXN0cnVjdHVyZTwvdGV4dD48L3N3aXRjaD48L2c+PHJlY3Qgc3Ryb2tlPSJub25lIiBmaWxsPSJub25lIiBoZWlnaHQ9IjExMi4yNyIgd2lkdGg9IjIwIiB5PSIxMzQuNzMiIHg9IjIiLz48ZyB0cmFuc2Zvcm09InRyYW5zbGF0ZSgtMC41IC0wLjUpcm90YXRlKC05MCAxMiAxOTAuODY1KSI+PHN3aXRjaD48dGV4dCB0ZXh0LWFuY2hvcj0ibWlkZGxlIiBmb250LXNpemU9IjEycHgiIGZvbnQtZmFtaWx5PSJIZWx2ZXRpY2EiIGZpbGw9IiMwMDg4MDAiIHk9IjE5NCIgeD0iMTIiPlRQICh0ZXN0IHBhcnRpY2lwYW4uLi48L3RleHQ+PC9zd2l0Y2g+PC9nPjxwYXRoIHN0cm9rZS1taXRlcmxpbWl0PSIxMCIgc3Ryb2tlLXdpZHRoPSIyIiBzdHJva2U9IiM0MDQwZmYiIGZpbGw9Im5vbmUiIGQ9Ik0gOTQgMTMxIEwgMTY0IDEzMSIvPjxwYXRoIHN0cm9rZS1taXRlcmxpbWl0PSIxMCIgc3Ryb2tlLXdpZHRoPSIyIiBzdHJva2U9IiMwMDg4MDAiIGZpbGw9Im5vbmUiIGQ9Ik0gOTQgMTMzIEwgMTY0IDEzMyIvPjwvZz48c3dpdGNoPjxnLz48YSB0YXJnZXQ9Il9ibGFuayIgeGxpbms6aHJlZj0iaHR0cHM6Ly93d3cuZGlhZ3JhbXMubmV0L2RvYy9mYXEvc3ZnLWV4cG9ydC10ZXh0LXByb2JsZW1zIiB0cmFuc2Zvcm09InRyYW5zbGF0ZSgwLC01KSI+PHRleHQgeT0iMTAwJSIgeD0iNTAlIiBmb250LXNpemU9IjEwcHgiIHRleHQtYW5jaG9yPSJtaWRkbGUiPlRleHQgaXMgbm90IFNWRyAtIGNhbm5vdCBkaXNwbGF5PC90ZXh0PjwvYT48L3N3aXRjaD48L3N2Zz4=;" parent="1" vertex="1">
                    <mxGeometry x="350" y="500" width="166" height="344" as="geometry"/>
                </mxCell>
                <mxCell id="6bS_RCBzzbipsxGdoiMo-2" value="" style="sketch=0;aspect=fixed;pointerEvents=1;shadow=0;dashed=0;html=1;strokeColor=none;labelPosition=center;verticalLabelPosition=bottom;verticalAlign=top;align=center;fillColor=#00188D;shape=mxgraph.azure.computer" parent="1" vertex="1">
                    <mxGeometry x="-80" y="620" width="50" height="45" as="geometry"/>
                </mxCell>
                <mxCell id="6bS_RCBzzbipsxGdoiMo-3" value="" style="endArrow=none;html=1;strokeColor=#FF0000;strokeWidth=2;exitX=1;exitY=0.5;exitDx=0;exitDy=0;exitPerimeter=0;" parent="1" source="6bS_RCBzzbipsxGdoiMo-2" edge="1">
                    <mxGeometry width="50" height="50" relative="1" as="geometry">
                        <mxPoint x="-20" y="250" as="sourcePoint"/>
                        <mxPoint x="177" y="603" as="targetPoint"/>
                    </mxGeometry>
                </mxCell>
                <mxCell id="6bS_RCBzzbipsxGdoiMo-5" value="" style="endArrow=none;html=1;strokeWidth=2;strokeColor=#FF0000;exitX=1;exitY=0.5;exitDx=0;exitDy=0;exitPerimeter=0;" parent="1" source="6bS_RCBzzbipsxGdoiMo-2" edge="1">
                    <mxGeometry width="50" height="50" relative="1" as="geometry">
                        <mxPoint x="-20" y="250" as="sourcePoint"/>
                        <mxPoint x="179" y="655" as="targetPoint"/>
                    </mxGeometry>
                </mxCell>
                <mxCell id="6bS_RCBzzbipsxGdoiMo-7" value="" style="sketch=0;pointerEvents=1;shadow=0;dashed=0;html=1;strokeColor=none;fillColor=#434445;aspect=fixed;labelPosition=center;verticalLabelPosition=bottom;verticalAlign=top;align=center;outlineConnect=0;shape=mxgraph.vvd.cpu;" parent="1" vertex="1">
                    <mxGeometry x="236" y="755" width="50" height="50" as="geometry"/>
                </mxCell>
                <mxCell id="6bS_RCBzzbipsxGdoiMo-8" value="" style="verticalLabelPosition=bottom;shadow=0;dashed=0;align=center;html=1;verticalAlign=top;shape=mxgraph.electrical.logic_gates.synchronous_rs_latch;" parent="1" vertex="1">
                    <mxGeometry x="380" y="745" width="89" height="60" as="geometry"/>
                </mxCell>
                <mxCell id="6bS_RCBzzbipsxGdoiMo-9" value="" style="endArrow=none;html=1;strokeWidth=2;strokeColor=#FF0000;" parent="1" edge="1">
                    <mxGeometry width="50" height="50" relative="1" as="geometry">
                        <mxPoint x="289" y="693" as="sourcePoint"/>
                        <mxPoint x="275" y="753" as="targetPoint"/>
                    </mxGeometry>
                </mxCell>
                <mxCell id="6bS_RCBzzbipsxGdoiMo-11" value="" style="endArrow=none;html=1;strokeWidth=2;strokeColor=#FF0000;" parent="1" edge="1">
                    <mxGeometry width="50" height="50" relative="1" as="geometry">
                        <mxPoint x="261" y="753" as="sourcePoint"/>
                        <mxPoint x="292" y="656" as="targetPoint"/>
                    </mxGeometry>
                </mxCell>
                <mxCell id="QVaBI0Wi_gaqylhbhUQJ-4" value="" style="endArrow=none;html=1;strokeWidth=2;strokeColor=#FF0000;" parent="1" edge="1">
                    <mxGeometry width="50" height="50" relative="1" as="geometry">
                        <mxPoint x="250" y="752" as="sourcePoint"/>
                        <mxPoint x="233" y="622" as="targetPoint"/>
                    </mxGeometry>
                </mxCell>
                <mxCell id="QVaBI0Wi_gaqylhbhUQJ-5" value="" style="endArrow=none;html=1;strokeWidth=2;strokeColor=#FF0000;" parent="1" edge="1">
                    <mxGeometry width="50" height="50" relative="1" as="geometry">
                        <mxPoint x="409" y="743" as="sourcePoint"/>
                        <mxPoint x="452" y="658" as="targetPoint"/>
                    </mxGeometry>
                </mxCell>
                <mxCell id="QVaBI0Wi_gaqylhbhUQJ-6" value="" style="endArrow=none;html=1;strokeWidth=2;strokeColor=#FF0000;" parent="1" edge="1">
                    <mxGeometry width="50" height="50" relative="1" as="geometry">
                        <mxPoint x="454" y="695" as="sourcePoint"/>
                        <mxPoint x="430" y="745" as="targetPoint"/>
                    </mxGeometry>
                </mxCell>
            </root>
        </mxGraphModel>
    </diagram>
</mxfile>